<svg width="44" height="44" viewBox="0 0 44 44" fill="none" xmlns="http://www.w3.org/2000/svg">
<g clip-path="url(#clip0)">
<path d="M33.2942 4.87667L22.2942 0.0616037C22.1072 -0.0200259 21.8946 -0.0200259 21.7076 0.0616037L10.7076 4.87667C10.4405 4.99325 10.2677 5.25695 10.2676 5.5484V17.0617C10.2716 19.6492 11.5149 22.0781 13.6116 23.5943L21.214 29.0774C21.6836 29.4173 22.3182 29.4173 22.7878 29.0774L30.3902 23.595C32.4869 22.0788 33.7303 19.6499 33.7342 17.0625V5.5484C33.7341 5.25695 33.5614 4.99325 33.2942 4.87667ZM32.2676 17.0625C32.2642 19.1788 31.2472 21.1654 29.5322 22.4055L22.0009 27.8373L14.4696 22.4055C12.7546 21.1654 11.7376 19.1788 11.7342 17.0625V6.028L22.0009 1.53414L32.2676 6.028V17.0625Z" fill="#A269F7"/>
<path d="M21.7078 3.26334L13.6412 6.79507C13.3741 6.91165 13.2013 7.17535 13.2012 7.46681V17.0625C13.2034 18.7078 13.9943 20.2524 15.3278 21.2161L21.5722 25.7202C21.8283 25.905 22.174 25.905 22.4302 25.7202L28.6745 21.2161C30.0081 20.2524 30.7989 18.7078 30.8012 17.0625V7.46681C30.801 7.17535 30.6283 6.91165 30.3612 6.79507L22.2945 3.26334C22.1075 3.18171 21.8949 3.18171 21.7078 3.26334ZM29.3345 7.94567V17.0625C29.3323 18.2366 28.7679 19.3386 27.8165 20.0266L22.0012 24.2213L16.1858 20.0266C15.2345 19.3386 14.6701 18.2366 14.6678 17.0625V7.94567L22.0012 4.73587L29.3345 7.94567Z" fill="#A269F7"/>
<path d="M6.07655 24.3467L4.49035 20.6404C4.15304 19.8763 3.43369 19.3502 2.6033 19.2603C1.7729 19.1703 0.957608 19.5303 0.464531 20.2044C-0.028547 20.8786 -0.124499 21.7646 0.21282 22.5287L3.08675 28.8508C3.47448 29.7067 4.01385 30.4853 4.67882 31.1491L9.19835 35.6693C8.94382 35.9391 8.80169 36.2958 8.80089 36.6667V42.5333C8.80089 43.3434 9.45754 44 10.2676 44H18.3342C19.1442 44 19.8009 43.3434 19.8009 42.5333V36.6667C19.8009 35.8567 19.1442 35.2 18.3342 35.2V33.8353C18.3567 32.0985 17.7901 30.4054 16.7268 29.0319C16.1033 28.212 15.2537 27.5923 14.2826 27.2492C12.738 26.6003 11.3176 25.6887 10.0842 24.5549C8.93937 23.612 7.31297 23.5275 6.07655 24.3467ZM18.3342 42.5333H10.2676V36.6667H18.3342V42.5333ZM15.582 29.9479C16.4368 31.0616 16.8899 32.4316 16.8676 33.8353V35.2H10.8036L5.71575 30.1121C5.17538 29.5725 4.7369 28.9398 4.42142 28.2443L1.54749 21.9223C1.42484 21.6524 1.44766 21.3388 1.60809 21.0896C1.76851 20.8403 2.04455 20.6896 2.34095 20.6895C2.68976 20.6893 3.005 20.8974 3.14175 21.2183L4.78222 25.0441C5.21784 26.0648 5.84573 26.9922 6.63169 27.7757L9.98155 31.1263C10.1657 31.317 10.4383 31.3934 10.6947 31.3263C10.9511 31.2592 11.1514 31.059 11.2185 30.8026C11.2856 30.5462 11.2091 30.2735 11.0185 30.0894L7.66862 26.7388C7.33177 26.4028 7.02891 26.0343 6.76442 25.6388C7.46867 25.0969 8.4539 25.1133 9.13969 25.6784C10.5105 26.9365 12.0949 27.9398 13.8184 28.6411C14.5205 28.8964 15.1333 29.3505 15.582 29.9479Z" fill="#A269F7"/>
<path d="M16.1346 38.8667H15.4013C14.9963 38.8667 14.668 39.195 14.668 39.6C14.668 40.005 14.9963 40.3333 15.4013 40.3333H16.1346C16.5396 40.3333 16.868 40.005 16.868 39.6C16.868 39.195 16.5396 38.8667 16.1346 38.8667Z" fill="#A269F7"/>
<path d="M40.9153 28.8508L43.7893 22.5287C44.1426 21.762 44.0552 20.8644 43.5605 20.1803C43.0659 19.4962 42.2408 19.1319 41.402 19.2272C40.5632 19.3226 39.841 19.8627 39.5125 20.6404L37.9299 24.3327C36.6892 23.5176 35.062 23.6068 33.9178 24.5527C32.6845 25.6865 31.264 26.5981 29.7195 27.247C28.7483 27.5901 27.8987 28.2098 27.2753 29.0297C26.2115 30.4037 25.6449 32.0978 25.6678 33.8353V35.2C24.8578 35.2 24.2012 35.8567 24.2012 36.6667V42.5334C24.2012 43.3434 24.8578 44 25.6678 44H33.7345C34.5445 44 35.2012 43.3434 35.2012 42.5334V36.6667C35.2004 36.2958 35.0582 35.9391 34.8037 35.6693L39.3232 31.1491C39.9882 30.4853 40.5276 29.7067 40.9153 28.8508ZM33.7345 42.5334H25.6678V36.6667H33.7345V42.5334ZM33.1984 35.2H27.1345V33.8353C27.1124 32.4318 27.5654 31.0621 28.42 29.9486C28.8678 29.3516 29.4792 28.8974 30.18 28.6411C31.9038 27.94 33.4885 26.9367 34.8594 25.6784C35.5445 25.109 36.5325 25.0898 37.2391 25.6322C36.9739 26.0306 36.6695 26.4016 36.3305 26.7395L32.9806 30.0901C32.7027 30.3779 32.7067 30.8353 32.9896 31.1181C33.2724 31.401 33.7298 31.405 34.0176 31.1271L37.3674 27.7765C38.1534 26.9929 38.7813 26.0655 39.2169 25.0448L40.8574 21.2183C40.9945 20.8978 41.3096 20.6901 41.6582 20.6903C41.9546 20.6904 42.2306 20.841 42.3911 21.0903C42.5515 21.3395 42.5743 21.6532 42.4517 21.923L39.5777 28.2451C39.2622 28.9405 38.8237 29.5733 38.2834 30.1129L33.1984 35.2Z" fill="#A269F7"/>
<path d="M28.6014 38.8667H27.8681C27.4631 38.8667 27.1348 39.195 27.1348 39.6C27.1348 40.005 27.4631 40.3333 27.8681 40.3333H28.6014C29.0064 40.3333 29.3348 40.005 29.3348 39.6C29.3348 39.195 29.0064 38.8667 28.6014 38.8667Z" fill="#A269F7"/>
<path d="M18.0406 15.5467C17.7166 15.3037 17.2569 15.3693 17.0139 15.6933C16.7709 16.0173 16.8366 16.477 17.1606 16.72L20.0939 18.92C20.2208 19.0152 20.3752 19.0667 20.5339 19.0667C20.5754 19.0665 20.6169 19.0631 20.6578 19.0564C20.8564 19.0223 21.0323 18.908 21.144 18.7403L27.0107 9.94033C27.1561 9.72235 27.1742 9.44335 27.0581 9.20843C26.942 8.97352 26.7094 8.81837 26.448 8.80143C26.1865 8.7845 25.9358 8.90835 25.7904 9.12633L20.3535 17.2817L18.0406 15.5467Z" fill="#A269F7"/>
</g>
<defs>
<clipPath id="clip0">
<rect width="44" height="44" fill="white"/>
</clipPath>
</defs>
</svg>
