<svg width="27" height="19" viewBox="0 0 27 19" fill="none" xmlns="http://www.w3.org/2000/svg">
<path d="M25.8474 8.96503L18.0349 1.15254C17.8314 0.949072 17.5018 0.949072 17.2984 1.15254C17.095 1.35601 17.095 1.6856 17.2984 1.88901L24.2219 8.81245H1.52085C1.23296 8.81245 1 9.04541 1 9.3333C1 9.62119 1.23296 9.85415 1.52085 9.85415H24.2219L17.2984 16.7775C17.095 16.981 17.095 17.3106 17.2984 17.514C17.4001 17.6157 17.5334 17.6666 17.6667 17.6666C17.7999 17.6666 17.9332 17.6157 18.035 17.514L25.8474 9.70151C26.0509 9.49809 26.0509 9.1685 25.8474 8.96503Z" fill="#A269F7" stroke="#A269F7"/>
</svg>
