<svg width="35" height="35" viewBox="0 0 35 35" fill="none" xmlns="http://www.w3.org/2000/svg">
<g clip-path="url(#clip0)">
<path d="M0.213624 18.0156L11.1511 28.9531C11.436 29.238 11.8974 29.238 12.1822 28.9531C12.467 28.6683 12.467 28.2068 12.1822 27.922L2.48937 18.2292L34.2708 18.2292C34.6739 18.2292 35 17.9031 35 17.5C35 17.097 34.6739 16.7709 34.2708 16.7709L2.48937 16.7708L12.1822 7.07811C12.467 6.79325 12.467 6.33183 12.1822 6.04704C12.0398 5.90465 11.8532 5.83342 11.6666 5.83342C11.4801 5.83342 11.2935 5.90465 11.1511 6.04704L0.213555 16.9845C-0.0712308 17.2693 -0.0712308 17.7308 0.213624 18.0156Z" fill="black"/>
</g>
<defs>
<clipPath id="clip0">
<rect x="35" y="35" width="35" height="35" transform="rotate(-180 35 35)" fill="white"/>
</clipPath>
</defs>
</svg>
