<svg width="15" height="15" viewBox="0 0 15 15" fill="none" xmlns="http://www.w3.org/2000/svg">
<g clip-path="url(#clip0)">
<path d="M6.34618 0H0.576925C0.258288 0 0 0.258288 0 0.576925V6.34618C0 6.66481 0.258288 6.9231 0.576925 6.9231H6.34618C6.66481 6.9231 6.9231 6.66481 6.9231 6.34618V0.576925C6.9231 0.258288 6.66481 0 6.34618 0Z" fill="#FEFEFE"/>
<path d="M14.4228 0H8.65358C8.33495 0 8.07666 0.258288 8.07666 0.576925V6.34618C8.07666 6.66481 8.33495 6.9231 8.65358 6.9231H14.4228C14.7415 6.9231 14.9998 6.66481 14.9998 6.34618V0.576925C14.9998 0.258288 14.7415 0 14.4228 0Z" fill="#FEFEFE"/>
<path d="M6.34618 8.07693H0.576925C0.258288 8.07693 0 8.33522 0 8.65386V14.4231C0 14.7417 0.258288 15 0.576925 15H6.34618C6.66481 15 6.9231 14.7417 6.9231 14.4231V8.65386C6.9231 8.33522 6.66481 8.07693 6.34618 8.07693Z" fill="#FEFEFE"/>
<path d="M14.4228 8.07693H8.65358C8.33495 8.07693 8.07666 8.33522 8.07666 8.65386V14.4231C8.07666 14.7417 8.33495 15 8.65358 15H14.4228C14.7415 15 14.9998 14.7417 14.9998 14.4231V8.65386C14.9998 8.33522 14.7415 8.07693 14.4228 8.07693Z" fill="#FEFEFE"/>
</g>
<defs>
<clipPath id="clip0">
<rect width="15" height="15" fill="white"/>
</clipPath>
</defs>
</svg>
