<svg width="124" height="40" viewBox="0 0 124 40" fill="none" xmlns="http://www.w3.org/2000/svg">
<g clip-path="url(#clip0)">
<path d="M119.9 0H4.10026C1.83575 0 0 1.81063 0 4.04417V35.9558C0 38.1894 1.83575 40 4.10026 40H119.9C122.164 40 124 38.1894 124 35.9558V4.04417C124 1.81063 122.164 0 119.9 0Z" fill="#1D1D1D"/>
<path d="M67.4046 13.518C66.8713 13.5266 66.3476 13.3779 65.9005 13.091C65.4535 12.8041 65.1035 12.392 64.8954 11.9077C64.6873 11.4233 64.6305 10.8887 64.7325 10.3724C64.8344 9.856 65.0903 9.38142 65.4674 9.00945C65.8446 8.63747 66.3257 8.38505 66.8493 8.28452C67.3728 8.18399 67.9148 8.23994 68.4059 8.44519C68.897 8.65045 69.3147 8.99566 69.6056 9.43659C69.8965 9.87752 70.0472 10.3941 70.0386 10.9201C70.0386 11.6091 69.761 12.2699 69.2671 12.7571C68.7731 13.2443 68.1031 13.518 67.4046 13.518ZM67.4046 12.7127C67.7734 12.7161 68.135 12.6113 68.4434 12.4117C68.7518 12.2121 68.9931 11.9266 69.1367 11.5914C69.2803 11.2563 69.3197 10.8866 69.2498 10.5293C69.18 10.1721 69.0041 9.84332 68.7445 9.58483C68.4849 9.32634 68.1533 9.14976 67.7918 9.07751C67.4302 9.00525 67.0551 9.04059 66.7139 9.17902C66.3728 9.31745 66.081 9.55274 65.8757 9.85501C65.6704 10.1573 65.5608 10.5129 65.5608 10.8768C65.5607 11.3607 65.7544 11.825 66.0997 12.1688C66.445 12.5126 66.9139 12.7081 67.4046 12.7127Z" fill="white"/>
<path d="M49.3703 11.1712V12.782H51.5126V13.3708H48.5537V8.45203H51.5126V9.0409H49.3703V10.5824H51.2931V11.1712H49.3703Z" fill="white"/>
<path d="M54.4363 9.0409V13.3708H53.5583V9.0409H52.3291V8.45203H55.6479V9.0409H54.4363Z" fill="white"/>
<path d="M61.6361 9.0409V13.3708H60.8283V9.0409H59.5728V8.45203H62.9004V9.0409H61.6361Z" fill="white"/>
<path d="M58.8966 8.45203H58.0186V13.3708H58.8966V8.45203Z" fill="white"/>
<path d="M71.5397 8.45203H71.689L73.9103 12.0545V8.45203H74.7181V13.3708H73.9103L71.5397 9.52585V13.3622H70.7319V8.45203H71.5397Z" fill="white"/>
<path d="M45.5068 10.6689H47.737L47.7106 11.3704H45.5068V10.6689Z" fill="white"/>
<path d="M47.2981 9.0236L46.7889 9.52587C46.6189 9.36163 46.4168 9.23318 46.1949 9.14833C45.9731 9.06348 45.736 9.02399 45.4982 9.03226C45.0187 9.0645 44.5694 9.27512 44.2413 9.62156C43.9132 9.96799 43.7307 10.4244 43.7307 10.8985C43.7307 11.3725 43.9132 11.8289 44.2413 12.1754C44.5694 12.5218 45.0187 12.7324 45.4982 12.7647C45.7439 12.7781 45.9895 12.738 46.2178 12.6473C46.446 12.5566 46.6511 12.4174 46.8187 12.2397C46.9863 12.062 47.1122 11.8502 47.1875 11.6191C47.2627 11.3881 47.2855 11.1435 47.2542 10.9028C47.2588 10.8249 47.2588 10.7468 47.2542 10.669H47.9039C47.9807 11.0186 47.9743 11.3809 47.885 11.7276C47.7958 12.0743 47.6262 12.3959 47.3896 12.667C47.1531 12.9381 46.856 13.1514 46.5217 13.29C46.1874 13.4287 45.825 13.489 45.4631 13.4661C44.7645 13.4661 44.0946 13.1924 43.6006 12.7052C43.1066 12.218 42.8291 11.5572 42.8291 10.8682C42.8291 10.1791 43.1066 9.51833 43.6006 9.03111C44.0946 8.5439 44.7645 8.27019 45.4631 8.27019C45.8054 8.26232 46.1455 8.3253 46.4616 8.45507C46.7776 8.58484 47.0626 8.77851 47.2981 9.0236Z" fill="white"/>
<path d="M88.9854 17.2592H93.1822C93.9011 17.4134 94.5398 17.8176 94.9815 18.398C95.4232 18.9783 95.6385 19.696 95.5879 20.42C95.6363 21.1425 95.42 21.8582 94.9785 22.4367C94.537 23.0152 93.8995 23.4182 93.1822 23.5722H88.9854V17.2592ZM89.8019 18.7833V22.178H92.6466C92.6466 22.178 93.9373 22.178 93.9373 20.446C93.9373 18.714 92.6466 18.714 92.6466 18.714L89.8019 18.7833Z" fill="white"/>
<path d="M90.0917 17.2592H88.6167V27.5298H90.0917V17.2592Z" fill="white"/>
<path d="M97.9321 17.2592H96.457V27.5298H97.9321V17.2592Z" fill="white"/>
<path d="M103.411 26.7936C102.81 27.2459 102.077 27.495 101.321 27.5037C101.018 27.5482 100.709 27.5253 100.416 27.4368C100.124 27.3483 99.8546 27.1964 99.6291 26.9922C99.4036 26.788 99.2271 26.5367 99.1127 26.2566C98.9983 25.9765 98.9488 25.6747 98.9679 25.3734C98.9159 24.8587 99.0708 24.3445 99.3991 23.9413C99.7275 23.5381 100.203 23.278 100.724 23.2171C101.633 23.0573 102.571 23.1752 103.411 23.5548V23.2517C103.35 22.9277 103.175 22.6356 102.916 22.4277C102.657 22.2198 102.331 22.1097 101.997 22.1172C100.654 22.1172 100.355 22.836 100.355 22.836L99.1259 22.1172C99.4056 21.6592 99.8071 21.2855 100.287 21.0366C100.767 20.7878 101.307 20.6733 101.848 20.7057C104.42 20.7057 104.85 22.4377 104.85 23.0612V27.521H103.375L103.411 26.7936ZM103.305 24.594C103.305 24.594 100.46 23.8319 100.355 25.46C100.25 27.088 103.086 26.2827 103.34 25.1569C103.346 24.9686 103.335 24.7801 103.305 24.594Z" fill="white"/>
<path d="M107.66 27.14L105.026 20.9309H106.501L108.398 25.3994L110.286 20.9655H111.761L107.766 30.3962H106.282L107.66 27.14Z" fill="white"/>
<path d="M85.3065 23.3297L80.6356 25.2436C80.7612 25.5818 80.9958 25.87 81.3035 26.0639C81.6112 26.2579 81.9749 26.347 82.3389 26.3174C82.6886 26.3049 83.0303 26.2104 83.3357 26.0417C83.6411 25.873 83.9013 25.6351 84.0949 25.3475L85.2802 26.1442C84.9558 26.6234 84.5173 27.0169 84.003 27.2901C83.4887 27.5634 82.9143 27.7081 82.3301 27.7116C81.3987 27.7116 80.5054 27.3467 79.8467 26.6971C79.1881 26.0475 78.8181 25.1664 78.8181 24.2477C78.7957 23.8 78.8644 23.3524 79.02 22.9313C79.1757 22.5101 79.4152 22.124 79.7245 21.7956C80.0337 21.4671 80.4065 21.203 80.8208 21.0189C81.2351 20.8347 81.6826 20.7341 82.137 20.7231C84.6568 20.7058 85.3065 23.3297 85.3065 23.3297ZM83.5505 22.7842C83.3903 22.543 83.1671 22.3489 82.9044 22.2224C82.6417 22.0959 82.3493 22.0416 82.0579 22.0654C81.8141 22.0859 81.5769 22.1543 81.3603 22.2665C81.1437 22.3788 80.9521 22.5326 80.7966 22.719C80.6412 22.9054 80.5251 23.1206 80.4552 23.3519C80.3854 23.5832 80.3631 23.8259 80.3897 24.0658L83.5505 22.7842Z" fill="white"/>
<path d="M78.2035 17.2592H76.6406V27.5125H78.2035V17.2592Z" fill="white"/>
<path d="M74.1384 20.9309H75.5871V27.3999C75.6195 27.8443 75.5566 28.2905 75.4024 28.7093C75.2482 29.1281 75.0062 29.5101 74.6922 29.8304C74.3782 30.1507 73.9992 30.4022 73.58 30.5683C73.1609 30.7344 72.7109 30.8115 72.2595 30.7946C71.597 30.7939 70.9498 30.5982 70.4008 30.2325C69.8518 29.8669 69.4259 29.348 69.1777 28.7422L70.5035 28.1879C70.6383 28.5582 70.8864 28.878 71.2136 29.103C71.5408 29.3279 71.9309 29.447 72.3297 29.4436C72.5828 29.4448 72.8333 29.3936 73.065 29.2933C73.2967 29.193 73.5045 29.0459 73.675 28.8614C73.8454 28.677 73.9748 28.4593 74.0546 28.2225C74.1344 27.9856 74.163 27.7349 74.1384 27.4865V26.8456C73.9088 27.1348 73.6115 27.3647 73.272 27.5155C72.9325 27.6664 72.5609 27.7337 72.1892 27.7116C71.2578 27.7116 70.3645 27.3467 69.7059 26.6971C69.0473 26.0474 68.6772 25.1664 68.6772 24.2477C68.6772 23.329 69.0473 22.4479 69.7059 21.7983C70.3645 21.1487 71.2578 20.7837 72.1892 20.7837C72.5579 20.766 72.9254 20.8353 73.2614 20.9859C73.5974 21.1366 73.892 21.3641 74.1208 21.6497L74.1384 20.9309ZM72.3122 26.352C72.8455 26.3164 73.3436 26.0762 73.6997 25.6829C74.0557 25.2896 74.2416 24.7744 74.2174 24.2477C74.1701 23.8858 74.018 23.5452 73.7794 23.2664C73.5407 22.9877 73.2256 22.7828 72.8718 22.6763C72.5181 22.5698 72.1407 22.5661 71.7849 22.6658C71.4291 22.7656 71.11 22.9644 70.8659 23.2384C70.6217 23.5125 70.4629 23.8502 70.4085 24.2111C70.3541 24.5719 70.4063 24.9406 70.559 25.2729C70.7116 25.6052 70.9582 25.887 71.2692 26.0846C71.5802 26.2821 71.9423 26.387 72.3122 26.3867V26.352Z" fill="white"/>
<path d="M64.7171 27.7116C64.0225 27.7116 63.3435 27.5084 62.7659 27.1278C62.1884 26.7472 61.7382 26.2062 61.4724 25.5732C61.2066 24.9403 61.1371 24.2438 61.2726 23.5719C61.4081 22.8999 61.7426 22.2827 62.2337 21.7983C62.7249 21.3138 63.3507 20.9839 64.0319 20.8503C64.7132 20.7166 65.4193 20.7852 66.0611 21.0474C66.7028 21.3095 67.2513 21.7535 67.6372 22.3232C68.0231 22.8928 68.2291 23.5625 68.2291 24.2476C68.2291 25.1663 67.8591 26.0474 67.2004 26.697C66.5418 27.3467 65.6485 27.7116 64.7171 27.7116ZM64.7171 26.3433C65.1486 26.3782 65.5808 26.2838 65.9571 26.0725C66.3334 25.8611 66.6362 25.5427 66.8261 25.1589C67.0159 24.775 67.0838 24.3436 67.021 23.921C66.9582 23.4985 66.7676 23.1044 66.4741 22.7905C66.1805 22.4765 65.7978 22.2572 65.3758 22.1613C64.9539 22.0654 64.5124 22.0973 64.1091 22.2528C63.7059 22.4084 63.3596 22.6804 63.1156 23.0332C62.8716 23.386 62.7413 23.8032 62.7416 24.2303C62.7294 24.7585 62.9259 25.2707 63.2897 25.6586C63.6534 26.0465 64.1559 26.2796 64.6907 26.3087L64.7171 26.3433Z" fill="white"/>
<path d="M57.0701 27.7116C56.3755 27.7116 55.6965 27.5084 55.1189 27.1278C54.5414 26.7472 54.0913 26.2062 53.8254 25.5732C53.5596 24.9403 53.4901 24.2438 53.6256 23.5719C53.7611 22.8999 54.0956 22.2827 54.5867 21.7983C55.0779 21.3138 55.7037 20.9839 56.3849 20.8503C57.0662 20.7166 57.7724 20.7852 58.4141 21.0474C59.0558 21.3095 59.6043 21.7535 59.9902 22.3232C60.3761 22.8928 60.5821 23.5625 60.5821 24.2476C60.5821 25.1663 60.2121 26.0474 59.5535 26.697C58.8948 27.3467 58.0016 27.7116 57.0701 27.7116ZM57.0701 26.3433C57.5017 26.3782 57.9339 26.2838 58.3101 26.0725C58.6864 25.8611 58.9893 25.5427 59.1791 25.1589C59.3689 24.775 59.4369 24.3436 59.3741 23.921C59.3113 23.4985 59.1206 23.1044 58.8271 22.7905C58.5336 22.4765 58.1508 22.2572 57.7288 22.1613C57.3069 22.0654 56.8654 22.0973 56.4622 22.2528C56.0589 22.4084 55.7126 22.6804 55.4686 23.0332C55.2246 23.386 55.0943 23.8032 55.0946 24.2303C55.0826 24.7628 55.2828 25.2787 55.6521 25.6673C56.0215 26.0559 56.5306 26.2862 57.0701 26.3087V26.3433Z" fill="white"/>
<path d="M48.0176 21.8142H52.6622L52.6183 23.2691H48.0176V21.8142Z" fill="white"/>
<path d="M51.7492 18.3849L50.6868 19.4327C50.3312 19.09 49.9093 18.8214 49.4462 18.6428C48.9832 18.4643 48.4884 18.3795 47.9914 18.3935C46.9435 18.3935 45.9386 18.8041 45.1976 19.5349C44.4566 20.2658 44.0404 21.257 44.0404 22.2905C44.0404 23.324 44.4566 24.3152 45.1976 25.0461C45.9386 25.7769 46.9435 26.1874 47.9914 26.1874C50.16 26.1874 51.7053 24.9404 51.7053 22.2905C51.7142 22.1319 51.7142 21.9728 51.7053 21.8142H53.0662V21.8662C53.5579 25.5813 51.0029 27.7116 47.9475 27.7116C46.4968 27.7116 45.1055 27.1432 44.0796 26.1314C43.0538 25.1196 42.4775 23.7473 42.4775 22.3165C42.4775 20.8856 43.0538 19.5133 44.0796 18.5016C45.1055 17.4898 46.4968 16.9214 47.9475 16.9214C48.6491 16.8946 49.3488 17.0107 50.0029 17.2625C50.657 17.5143 51.2515 17.8964 51.7492 18.3849Z" fill="white"/>
<path d="M34.8568 17.5709C36.165 18.2896 36.1562 19.4761 34.8568 20.1688L19.5269 28.7421C18.2274 29.4696 17.1738 28.8547 17.1738 27.3825V10.3918C17.1738 8.91099 18.2362 8.3048 19.5269 9.03223L34.8568 17.5709Z" fill="url(#paint0_linear)"/>
<path d="M17.2176 8.52136L27.5517 18.714L17.0859 29.3137L17.2176 8.52136Z" fill="url(#paint1_linear)"/>
<path d="M15.0928 6.42566L27.5516 18.714L31.248 15.2154L15.0928 6.42566Z" fill="url(#paint2_linear)"/>
<path d="M27.5514 18.714L33.2145 24.3862L16.2778 30.0584L27.5514 18.714Z" fill="url(#paint3_linear)"/>
<path d="M2.63379 4.03551C2.63611 2.96443 3.06913 1.938 3.83783 1.18145C4.60652 0.424889 5.64811 -2.4556e-06 6.73405 0L117.266 0C118.351 -2.4556e-06 119.393 0.424889 120.162 1.18145C120.93 1.938 121.363 2.96443 121.366 4.03551V35.9645C121.363 37.0356 120.93 38.062 120.162 38.8186C119.393 39.5751 118.351 40 117.266 40H6.73405C5.64811 40 4.60652 39.5751 3.83783 38.8186C3.06913 38.062 2.63611 37.0356 2.63379 35.9645V4.03551Z" fill="#1D1D1D"/>
<path d="M47.7193 28.3005H49.528L45.5595 17.2158H43.7332L39.7646 28.3005H41.5206L42.5391 25.3561H46.7096L47.7193 28.3005ZM44.5585 19.2336H44.6902L46.2794 23.9186H42.9606L44.5585 19.2336ZM54.3307 19.7965C53.7907 19.7804 53.2571 19.9149 52.7912 20.1845C52.3252 20.4541 51.9459 20.8479 51.6967 21.3206H51.5738V19.9177H50.046V31.011H51.6879V27.0362H51.802C52.0444 27.487 52.4137 27.8592 52.8653 28.108C53.317 28.3569 53.8319 28.4718 54.3482 28.4391C56.4467 28.4391 57.7724 26.7677 57.7724 24.1091C57.7724 21.4505 56.4467 19.7792 54.3307 19.7792V19.7965ZM53.8653 26.9582C52.4957 26.9582 51.6352 25.8671 51.6352 24.1178C51.6352 22.3685 52.5132 21.2773 53.8741 21.2773C55.235 21.2773 56.0955 22.3512 56.0955 24.1178C56.0955 25.8844 55.2175 26.9582 53.8653 26.9582ZM62.8209 19.7965C62.281 19.7804 61.7474 19.9149 61.2814 20.1845C60.8155 20.4541 60.4361 20.8479 60.1869 21.3206H60.064V19.9177H58.4836V31.011H60.1255V27.0362H60.2484C60.4923 27.4877 60.8631 27.8602 61.3162 28.109C61.7694 28.3579 62.2858 28.4725 62.8034 28.4391C64.893 28.4391 66.2276 26.7677 66.2276 24.1091C66.2276 21.4505 64.893 19.7792 62.7858 19.7792L62.8209 19.7965ZM62.338 26.9582C60.9684 26.9582 60.1079 25.8671 60.1079 24.1178C60.1079 22.3685 60.9859 21.2773 62.3468 21.2773C63.7077 21.2773 64.5594 22.3512 64.5594 24.1178C64.5594 25.8844 63.7341 26.9582 62.338 26.9582ZM69.7132 25.3215C69.8362 27.3046 71.4692 28.569 73.9013 28.569C76.5353 28.569 78.1333 27.244 78.1333 25.105C78.1333 23.4336 77.2114 22.507 74.9549 21.9874L73.752 21.7017C72.3209 21.3639 71.7414 20.9136 71.7414 20.1169C71.7414 19.121 72.6194 18.4715 73.9891 18.4715C74.517 18.4066 75.0502 18.5411 75.4818 18.8479C75.9133 19.1547 76.2113 19.6111 76.3158 20.1256H77.9752C77.8699 18.2637 76.2192 16.9474 74.0154 16.9474C71.6185 16.9474 70.0118 18.2637 70.0118 20.2381C70.0118 21.8662 70.8898 22.8361 72.9092 23.3037L74.3228 23.6415C75.7802 23.9879 76.4212 24.5075 76.4212 25.3735C76.4212 26.3607 75.4115 27.1054 74.0418 27.1054C72.6721 27.1054 71.557 26.4386 71.4078 25.3735L69.7132 25.3215ZM79.5468 17.9086V19.9783H78.2035V21.3639H79.5644V26.0836C79.5644 27.703 80.2844 28.3438 82.1106 28.3438C82.4055 28.3441 82.6996 28.3151 82.9886 28.2572V26.8889C82.7603 26.8889 82.6286 26.8889 82.3828 26.8889C81.5663 26.8889 81.2063 26.5079 81.2063 25.6333V21.3033H83.0588V19.9177H81.1975V17.9086H79.5468ZM87.0977 26.9929C85.6753 26.9929 84.8763 25.945 84.8763 24.1178C84.8763 22.2905 85.6753 21.2427 87.0977 21.2427C88.52 21.2427 89.319 22.2992 89.319 24.1178C89.319 25.9363 88.5112 26.9929 87.0977 26.9929ZM87.0977 28.465C89.5209 28.465 91.0048 26.8283 91.0048 24.1351C91.0048 21.4419 89.5122 19.8052 87.0977 19.8052C84.6832 19.8052 83.1818 21.4419 83.1818 24.1351C83.1818 26.8283 84.6744 28.465 87.0977 28.465ZM91.7511 28.3005H93.3841V23.3817C93.3784 23.1123 93.43 22.8447 93.5354 22.5962C93.6408 22.3476 93.7978 22.1235 93.9962 21.9384C94.1947 21.7532 94.4303 21.6111 94.6877 21.5211C94.9452 21.4311 95.219 21.3953 95.4913 21.4159C95.7864 21.4203 96.0804 21.4522 96.3693 21.5111V19.8658C96.1294 19.8183 95.8853 19.7951 95.6406 19.7965C95.1639 19.7677 94.6903 19.8899 94.2891 20.1454C93.8879 20.401 93.58 20.7763 93.4105 21.2167H93.2876V19.9177H91.7159L91.7511 28.3005ZM100.092 21.1821C100.375 21.1787 100.655 21.2336 100.914 21.3432C101.174 21.4528 101.408 21.6147 101.6 21.8185C101.793 22.0223 101.94 22.2635 102.033 22.5268C102.125 22.79 102.161 23.0694 102.138 23.347H97.9497C97.9427 23.0652 97.9929 22.7849 98.0974 22.5225C98.202 22.2601 98.3586 22.021 98.5583 21.8192C98.7579 21.6175 98.9965 21.4572 99.2599 21.3477C99.5233 21.2383 99.8062 21.182 100.092 21.1821ZM102.129 26.0403C101.941 26.3855 101.652 26.6668 101.3 26.8475C100.947 27.0283 100.548 27.1 100.154 27.0535C98.8453 27.0535 98.0024 26.1269 97.9497 24.6633V24.5681H103.806V23.9879C103.806 21.3899 102.41 19.7792 100.101 19.7792C97.7917 19.7792 96.2815 21.4678 96.2815 24.1091C96.2815 26.7504 97.739 28.4391 100.11 28.4391C102.006 28.4391 103.332 27.5124 103.701 26.0143L102.129 26.0403Z" fill="white"/>
<path d="M42.0034 8.56461V13.8558H43.8999C45.454 13.8558 46.3583 12.8859 46.3583 11.1972C46.3583 9.50853 45.4803 8.59925 43.8999 8.59925L42.0034 8.56461ZM42.8112 9.30936H43.8033C44.8833 9.30936 45.5593 10.0108 45.5593 11.1972C45.5593 12.3836 44.9272 13.1024 43.8033 13.1024H42.8112V9.30936ZM49.2118 13.2236C48.527 13.2236 48.1494 12.7213 48.1494 11.8554C48.1494 10.9894 48.527 10.4871 49.2118 10.4871C49.8966 10.4871 50.2654 10.9894 50.2654 11.8554C50.2654 12.7213 49.8791 13.2236 49.2118 13.2236ZM49.2118 13.9251C50.362 13.9251 51.0644 13.1457 51.0644 11.8554C51.0644 10.565 50.3532 9.78565 49.2118 9.78565C48.9445 9.77934 48.679 9.83047 48.4337 9.93547C48.1884 10.0405 47.9692 10.1968 47.7912 10.3937C47.6133 10.5906 47.481 10.8234 47.4033 11.0757C47.3257 11.3281 47.3047 11.5942 47.3417 11.8554C47.3047 12.1166 47.3257 12.3826 47.4033 12.635C47.481 12.8874 47.6133 13.1201 47.7912 13.317C47.9692 13.5139 48.1884 13.6702 48.4337 13.7753C48.679 13.8803 48.9445 13.9314 49.2118 13.9251ZM57.1753 9.86359H56.3938L55.6914 12.9032H55.63L54.8222 9.86359H54.0759L53.2594 12.9032H53.2067L52.4955 9.86359H51.7053L52.794 13.8558H53.5579L54.4359 10.9114L55.3139 13.8558H56.1217L57.1753 9.86359ZM58.1674 13.8558H58.9488V11.5176C58.9371 11.3831 58.955 11.2478 59.0014 11.1208C59.0477 10.9937 59.1214 10.8781 59.2173 10.7819C59.3132 10.6856 59.4292 10.611 59.5571 10.5631C59.6851 10.5152 59.822 10.4952 59.9585 10.5044C60.538 10.5044 60.8365 10.8248 60.8365 11.4657V13.8558H61.6179V11.2578C61.6472 11.0671 61.6328 10.8724 61.5757 10.6879C61.5187 10.5035 61.4204 10.334 61.2881 10.1919C61.1559 10.0499 60.9931 9.93885 60.8116 9.86704C60.6301 9.79523 60.4346 9.76446 60.2395 9.77699C59.9835 9.75863 59.7278 9.8165 59.5055 9.9431C59.2832 10.0697 59.1046 10.2592 58.9927 10.4871H58.9137V9.85493H58.1674V13.8558ZM62.9174 13.8558H63.6988V8.30481H62.9174V13.8558ZM66.7279 13.2236C66.0518 13.2236 65.6655 12.7213 65.6655 11.8554C65.6655 10.9894 66.0518 10.4871 66.7279 10.4871C67.404 10.4871 67.7815 10.9894 67.7815 11.8554C67.7815 12.7213 67.404 13.2236 66.7279 13.2236ZM66.7279 13.9251C66.9949 13.9316 67.2602 13.8805 67.5052 13.7755C67.7501 13.6704 67.9689 13.5138 68.1461 13.3167C68.3234 13.1197 68.4549 12.8868 68.5314 12.6343C68.6079 12.3819 68.6277 12.1161 68.5893 11.8554C68.6207 11.5953 68.5958 11.3317 68.5164 11.0819C68.4369 10.832 68.3047 10.6016 68.1284 10.4058C67.9522 10.21 67.7358 10.0533 67.4936 9.94593C67.2515 9.8386 66.989 9.78311 66.7235 9.78311C66.458 9.78311 66.1956 9.8386 65.9534 9.94593C65.7112 10.0533 65.4949 10.21 65.3186 10.4058C65.1423 10.6016 65.0101 10.832 64.9307 11.0819C64.8512 11.3317 64.8264 11.5953 64.8578 11.8554C64.8208 12.1166 64.8418 12.3826 64.9194 12.635C64.9971 12.8874 65.1294 13.1201 65.3073 13.317C65.4853 13.5139 65.7045 13.6702 65.9498 13.7753C66.1951 13.8803 66.4606 13.9314 66.7279 13.9251ZM70.995 13.2496C70.5736 13.2496 70.2663 13.0418 70.2663 12.6781C70.2663 12.3143 70.5121 12.1411 71.0565 12.1065L72.0223 12.0459V12.375C72.0134 12.4987 71.9797 12.6194 71.9231 12.7302C71.8664 12.841 71.7881 12.9395 71.6925 13.0201C71.5969 13.1007 71.486 13.1617 71.3662 13.1996C71.2465 13.2375 71.1203 13.2516 70.995 13.2409V13.2496ZM70.793 13.9078C71.0324 13.9234 71.2714 13.8735 71.4837 13.7634C71.696 13.6534 71.8733 13.4875 71.9959 13.2842V13.8558H72.751V11.1279C72.751 10.2619 72.1891 9.78565 71.2057 9.78565C70.2224 9.78565 69.6692 10.2273 69.5902 10.9114H70.3453C70.4331 10.6257 70.7316 10.4611 71.1706 10.4611C71.6096 10.4611 71.9784 10.7036 71.9784 11.1279V11.4657L70.9072 11.5263C69.9677 11.5869 69.4409 12.0026 69.4409 12.7213C69.4389 12.8867 69.4722 13.0506 69.5387 13.2024C69.6052 13.3542 69.7033 13.4905 69.8267 13.6024C69.9501 13.7143 70.096 13.7993 70.255 13.8519C70.4139 13.9046 70.5823 13.9236 70.7492 13.9078H70.793ZM75.5343 13.9078C75.7853 13.9162 76.0339 13.856 76.2524 13.7337C76.4709 13.6114 76.6508 13.4319 76.7722 13.215H76.8337V13.8558H77.58V8.30481H76.7986V10.4958H76.7371C76.6225 10.2745 76.4455 10.0906 76.2274 9.96621C76.0094 9.84178 75.7595 9.78209 75.5079 9.79431C74.507 9.79431 73.8661 10.591 73.8661 11.8554C73.8661 13.1197 74.4982 13.9078 75.5079 13.9078H75.5343ZM75.7538 10.5044C76.4035 10.5044 76.8161 11.024 76.8161 11.8554C76.8161 12.6867 76.4123 13.2063 75.7538 13.2063C75.0953 13.2063 74.7002 12.6954 74.7002 11.8554C74.7002 11.0154 75.0953 10.5044 75.7538 10.5044ZM82.7778 13.2236C82.1017 13.2236 81.7242 12.7213 81.7242 11.8554C81.7242 10.9894 82.1017 10.4871 82.7778 10.4871C83.4538 10.4871 83.8401 10.9894 83.8401 11.8554C83.8401 12.7213 83.4538 13.2236 82.7778 13.2236ZM82.7778 13.9251C83.9367 13.9251 84.6391 13.1457 84.6391 11.8554C84.6757 11.5931 84.6549 11.3262 84.5782 11.0725C84.5014 10.8189 84.3704 10.5844 84.1941 10.3848C84.0177 10.1853 83.8 10.0253 83.5557 9.9157C83.3114 9.80609 83.0462 9.74937 82.7778 9.74937C82.5094 9.74937 82.2441 9.80609 81.9998 9.9157C81.7555 10.0253 81.5378 10.1853 81.3615 10.3848C81.1851 10.5844 81.0541 10.8189 80.9773 11.0725C80.9006 11.3262 80.8798 11.5931 80.9164 11.8554C80.878 12.1161 80.8977 12.3819 80.9743 12.6343C81.0508 12.8868 81.1823 13.1197 81.3596 13.3167C81.5368 13.5138 81.7556 13.6704 82.0005 13.7755C82.2455 13.8805 82.5107 13.9316 82.7778 13.9251ZM85.763 13.8471H86.5444V11.5176C86.5311 11.3828 86.548 11.2468 86.5938 11.1191C86.6396 10.9914 86.7132 10.8752 86.8094 10.7786C86.9057 10.682 87.0223 10.6074 87.1509 10.56C87.2796 10.5126 87.4172 10.4937 87.5541 10.5044C88.1336 10.5044 88.4321 10.8248 88.4321 11.4657V13.8558H89.2135V11.2578C89.2428 11.0671 89.2284 10.8724 89.1713 10.6879C89.1142 10.5035 89.0159 10.334 88.8837 10.1919C88.7515 10.0499 88.5886 9.93885 88.4071 9.86704C88.2257 9.79523 88.0302 9.76446 87.835 9.77699C87.579 9.75863 87.3233 9.8165 87.101 9.9431C86.8788 10.0697 86.7001 10.2592 86.5883 10.4871H86.5268V9.85493H85.7805L85.763 13.8471ZM92.9626 8.89368V9.88091H92.3216V10.5391H92.9626V12.7906C92.9626 13.5614 93.3138 13.8645 94.1742 13.8645C94.3145 13.8745 94.4553 13.8745 94.5956 13.8645V13.2063H94.3059C93.9196 13.2063 93.744 13.0244 93.744 12.6088V10.5391H94.622V9.88091H93.744V8.89368H92.9626ZM95.7634 13.8558H96.5799V11.5176C96.5706 11.3818 96.5911 11.2456 96.6401 11.1184C96.6891 10.9912 96.7654 10.8759 96.8638 10.7805C96.9622 10.685 97.0804 10.6117 97.2102 10.5656C97.3401 10.5194 97.4785 10.5015 97.616 10.5131C98.2042 10.5131 98.494 10.8335 98.494 11.4657V13.8558H99.2139V11.2578C99.2417 11.0655 99.2257 10.8695 99.1671 10.6841C99.1084 10.4986 99.0086 10.3284 98.8749 10.1857C98.7412 10.0431 98.577 9.93161 98.3942 9.85941C98.2113 9.78721 98.0145 9.7561 97.8179 9.76833C97.5607 9.7495 97.3038 9.80814 97.0812 9.93649C96.8586 10.0648 96.6807 10.2568 96.5711 10.4871H96.5799V8.30481H95.8073L95.7634 13.8558ZM102.146 10.4611C102.28 10.4607 102.413 10.4876 102.535 10.5403C102.658 10.593 102.768 10.6702 102.859 10.7671C102.95 10.864 103.019 10.9784 103.063 11.1031C103.106 11.2279 103.123 11.3602 103.112 11.4916H101.119C101.117 11.3571 101.142 11.2235 101.192 11.0986C101.243 10.9737 101.318 10.8599 101.414 10.764C101.509 10.6681 101.623 10.5919 101.749 10.5399C101.875 10.4879 102.01 10.4611 102.146 10.4611ZM103.112 12.782C103.02 12.9435 102.882 13.0748 102.715 13.1595C102.548 13.2442 102.359 13.2786 102.173 13.2583C102.026 13.2589 101.881 13.2292 101.746 13.1711C101.611 13.113 101.491 13.0278 101.391 12.921C101.292 12.8142 101.217 12.6881 101.17 12.5508C101.123 12.4135 101.106 12.2681 101.119 12.1238V12.0719H103.911V11.8034C103.911 10.5477 103.244 9.79431 102.155 9.79431C101.067 9.79431 100.338 10.5997 100.338 11.8727C100.338 13.1457 101.031 13.9337 102.164 13.9337C102.54 13.9698 102.917 13.8741 103.228 13.6635C103.54 13.4529 103.766 13.1408 103.867 12.782H103.112Z" fill="white"/>
<path d="M30.3435 19.8052C30.3504 18.9975 30.5621 18.2043 30.9593 17.4979C31.3565 16.7916 31.9265 16.1945 32.6176 15.761C32.1902 15.136 31.619 14.6196 30.9507 14.2538C30.2823 13.8881 29.5357 13.6835 28.7719 13.6567C27.1476 13.4835 25.576 14.6352 24.7507 14.6352C23.9253 14.6352 22.6347 13.674 21.2387 13.7C20.348 13.736 19.4821 14.0001 18.7263 14.4662C17.9704 14.9324 17.3506 15.5845 16.9277 16.3585C15.0575 19.6233 16.4536 24.4122 18.2359 27.0448C19.1139 28.3352 20.1763 29.7814 21.546 29.7294C22.9156 29.6774 23.3898 28.8634 25.0053 28.8634C26.6208 28.8634 27.0686 29.7294 28.4646 29.6861C29.8606 29.6428 30.8089 28.3871 31.6693 27.0881C32.3147 26.1653 32.8094 25.1484 33.1356 24.0745C32.2929 23.7118 31.5766 23.1131 31.0756 22.3526C30.5746 21.5921 30.3109 20.7034 30.3172 19.7965" fill="white"/>
<path d="M27.7096 11.9247C28.4934 10.9694 28.8795 9.75577 28.7895 8.53003C27.5861 8.65784 26.4775 9.23398 25.6902 10.1408C24.9046 11.0489 24.5079 12.2228 24.5839 13.4142C25.1857 13.4183 25.7805 13.2862 26.3224 13.0279C26.8643 12.7697 27.3388 12.3923 27.7096 11.9247Z" fill="white"/>
</g>
<defs>
<linearGradient id="paint0_linear" x1="34.1961" y1="17.1625" x2="26.9196" y2="17.1625" gradientUnits="userSpaceOnUse">
<stop stop-color="#FBDA09"/>
<stop offset="1" stop-color="#FFBC00"/>
</linearGradient>
<linearGradient id="paint1_linear" x1="16.9198" y1="17.5753" x2="24.5423" y2="16.5188" gradientUnits="userSpaceOnUse">
<stop stop-color="#01E2FF"/>
<stop offset="1" stop-color="#01C4FF"/>
</linearGradient>
<linearGradient id="paint2_linear" x1="20.7682" y1="7.74196" x2="28.386" y2="17.5935" gradientUnits="userSpaceOnUse">
<stop stop-color="#28D781"/>
<stop offset="1" stop-color="#02F076"/>
</linearGradient>
<linearGradient id="paint3_linear" x1="30.4118" y1="21.2539" x2="23.9119" y2="32.3016" gradientUnits="userSpaceOnUse">
<stop stop-color="#F2414E"/>
<stop offset="1" stop-color="#E02554"/>
</linearGradient>
<clipPath id="clip0">
<rect width="124" height="40" fill="white"/>
</clipPath>
</defs>
</svg>
