<svg width="124" height="40" viewBox="0 0 124 40" fill="none" xmlns="http://www.w3.org/2000/svg">
<path d="M119.9 0H4.10026C1.83575 0 0 1.81063 0 4.04417V35.9558C0 38.1894 1.83575 40 4.10026 40H119.9C122.164 40 124 38.1894 124 35.9558V4.04417C124 1.81063 122.164 0 119.9 0Z" fill="#1D1D1D"/>
<path d="M67.4046 13.518C66.8713 13.5266 66.3476 13.3779 65.9005 13.091C65.4535 12.8041 65.1035 12.392 64.8954 11.9077C64.6873 11.4233 64.6305 10.8887 64.7325 10.3724C64.8344 9.856 65.0903 9.38142 65.4674 9.00945C65.8446 8.63747 66.3257 8.38505 66.8493 8.28452C67.3728 8.18399 67.9148 8.23994 68.4059 8.44519C68.897 8.65045 69.3147 8.99566 69.6056 9.43659C69.8965 9.87752 70.0472 10.3941 70.0386 10.9201C70.0386 11.6091 69.761 12.2699 69.2671 12.7571C68.7731 13.2443 68.1031 13.518 67.4046 13.518ZM67.4046 12.7127C67.7734 12.7161 68.135 12.6113 68.4434 12.4117C68.7518 12.2121 68.9931 11.9266 69.1367 11.5914C69.2803 11.2563 69.3197 10.8866 69.2498 10.5293C69.18 10.1721 69.0041 9.84332 68.7445 9.58483C68.4849 9.32634 68.1533 9.14976 67.7918 9.07751C67.4302 9.00525 67.0551 9.04059 66.7139 9.17902C66.3728 9.31745 66.081 9.55274 65.8757 9.85501C65.6704 10.1573 65.5608 10.5129 65.5608 10.8768C65.5607 11.3607 65.7544 11.825 66.0997 12.1688C66.445 12.5126 66.9139 12.7081 67.4046 12.7127Z" fill="white"/>
<path d="M49.3703 11.1712V12.782H51.5126V13.3708H48.5537V8.45203H51.5126V9.0409H49.3703V10.5824H51.2931V11.1712H49.3703Z" fill="white"/>
<path d="M54.4363 9.0409V13.3708H53.5583V9.0409H52.3291V8.45203H55.6479V9.0409H54.4363Z" fill="white"/>
<path d="M61.6361 9.0409V13.3708H60.8283V9.0409H59.5728V8.45203H62.9004V9.0409H61.6361Z" fill="white"/>
<path d="M58.8966 8.45203H58.0186V13.3708H58.8966V8.45203Z" fill="white"/>
<path d="M71.5397 8.45203H71.689L73.9103 12.0545V8.45203H74.7181V13.3708H73.9103L71.5397 9.52585V13.3622H70.7319V8.45203H71.5397Z" fill="white"/>
<path d="M45.5068 10.6689H47.737L47.7106 11.3704H45.5068V10.6689Z" fill="white"/>
<path d="M47.2981 9.0236L46.7889 9.52587C46.6189 9.36163 46.4168 9.23318 46.1949 9.14833C45.9731 9.06348 45.736 9.02399 45.4982 9.03226C45.0187 9.0645 44.5694 9.27512 44.2413 9.62156C43.9132 9.96799 43.7307 10.4244 43.7307 10.8985C43.7307 11.3725 43.9132 11.8289 44.2413 12.1754C44.5694 12.5218 45.0187 12.7324 45.4982 12.7647C45.7439 12.7781 45.9895 12.738 46.2178 12.6473C46.446 12.5566 46.6511 12.4174 46.8187 12.2397C46.9863 12.062 47.1122 11.8502 47.1875 11.6191C47.2627 11.3881 47.2855 11.1435 47.2542 10.9028C47.2588 10.8249 47.2588 10.7468 47.2542 10.669H47.9039C47.9807 11.0186 47.9743 11.3809 47.885 11.7276C47.7958 12.0743 47.6262 12.3959 47.3896 12.667C47.1531 12.9381 46.856 13.1514 46.5217 13.29C46.1874 13.4287 45.825 13.489 45.4631 13.4661C44.7645 13.4661 44.0946 13.1924 43.6006 12.7052C43.1066 12.218 42.8291 11.5572 42.8291 10.8682C42.8291 10.1791 43.1066 9.51833 43.6006 9.03111C44.0946 8.5439 44.7645 8.27019 45.4631 8.27019C45.8054 8.26232 46.1455 8.3253 46.4616 8.45507C46.7776 8.58484 47.0626 8.77851 47.2981 9.0236Z" fill="white"/>
<path d="M88.9854 17.2592H93.1822C93.9011 17.4134 94.5398 17.8176 94.9815 18.398C95.4232 18.9783 95.6385 19.696 95.5879 20.42C95.6363 21.1425 95.42 21.8582 94.9785 22.4367C94.537 23.0152 93.8995 23.4182 93.1822 23.5722H88.9854V17.2592ZM89.8019 18.7833V22.178H92.6466C92.6466 22.178 93.9373 22.178 93.9373 20.446C93.9373 18.714 92.6466 18.714 92.6466 18.714L89.8019 18.7833Z" fill="white"/>
<path d="M90.0917 17.2592H88.6167V27.5298H90.0917V17.2592Z" fill="white"/>
<path d="M97.9321 17.2592H96.457V27.5298H97.9321V17.2592Z" fill="white"/>
<path d="M103.411 26.7936C102.81 27.2459 102.077 27.495 101.321 27.5037C101.018 27.5482 100.709 27.5253 100.416 27.4368C100.124 27.3483 99.8546 27.1964 99.6291 26.9922C99.4036 26.788 99.2271 26.5367 99.1127 26.2566C98.9983 25.9765 98.9488 25.6747 98.9679 25.3734C98.9159 24.8587 99.0708 24.3445 99.3991 23.9413C99.7275 23.5381 100.203 23.278 100.724 23.2171C101.633 23.0573 102.571 23.1752 103.411 23.5548V23.2517C103.35 22.9277 103.175 22.6356 102.916 22.4277C102.657 22.2198 102.331 22.1097 101.997 22.1172C100.654 22.1172 100.355 22.836 100.355 22.836L99.1259 22.1172C99.4056 21.6592 99.8071 21.2855 100.287 21.0366C100.767 20.7878 101.307 20.6733 101.848 20.7057C104.42 20.7057 104.85 22.4377 104.85 23.0612V27.521H103.375L103.411 26.7936ZM103.305 24.594C103.305 24.594 100.46 23.8319 100.355 25.46C100.25 27.088 103.086 26.2827 103.34 25.1569C103.346 24.9686 103.335 24.7801 103.305 24.594Z" fill="white"/>
<path d="M107.66 27.14L105.026 20.9309H106.501L108.398 25.3994L110.286 20.9655H111.761L107.766 30.3962H106.282L107.66 27.14Z" fill="white"/>
<path d="M85.3065 23.3297L80.6356 25.2436C80.7612 25.5818 80.9958 25.87 81.3035 26.0639C81.6112 26.2579 81.9749 26.347 82.3389 26.3174C82.6886 26.3049 83.0303 26.2104 83.3357 26.0417C83.6411 25.873 83.9013 25.6351 84.0949 25.3475L85.2802 26.1442C84.9558 26.6234 84.5173 27.0169 84.003 27.2901C83.4887 27.5634 82.9143 27.7081 82.3301 27.7116C81.3987 27.7116 80.5054 27.3467 79.8467 26.6971C79.1881 26.0475 78.8181 25.1664 78.8181 24.2477C78.7957 23.8 78.8644 23.3524 79.02 22.9313C79.1757 22.5101 79.4152 22.124 79.7245 21.7956C80.0337 21.4671 80.4065 21.203 80.8208 21.0189C81.2351 20.8347 81.6826 20.7341 82.137 20.7231C84.6568 20.7058 85.3065 23.3297 85.3065 23.3297ZM83.5505 22.7842C83.3903 22.543 83.1671 22.3489 82.9044 22.2224C82.6417 22.0959 82.3493 22.0416 82.0579 22.0654C81.8141 22.0859 81.5769 22.1543 81.3603 22.2665C81.1437 22.3788 80.9521 22.5326 80.7966 22.719C80.6412 22.9054 80.5251 23.1206 80.4552 23.3519C80.3854 23.5832 80.3631 23.8259 80.3897 24.0658L83.5505 22.7842Z" fill="white"/>
<path d="M78.2035 17.2592H76.6406V27.5125H78.2035V17.2592Z" fill="white"/>
<path d="M74.1384 20.9309H75.5871V27.3999C75.6195 27.8443 75.5566 28.2905 75.4024 28.7093C75.2482 29.1281 75.0062 29.5101 74.6922 29.8304C74.3782 30.1507 73.9992 30.4022 73.58 30.5683C73.1609 30.7344 72.7109 30.8115 72.2595 30.7946C71.597 30.7939 70.9498 30.5982 70.4008 30.2325C69.8518 29.8669 69.4259 29.348 69.1777 28.7422L70.5035 28.1879C70.6383 28.5582 70.8864 28.878 71.2136 29.103C71.5408 29.3279 71.9309 29.447 72.3297 29.4436C72.5828 29.4448 72.8333 29.3936 73.065 29.2933C73.2967 29.193 73.5045 29.0459 73.675 28.8614C73.8454 28.677 73.9748 28.4593 74.0546 28.2225C74.1344 27.9856 74.163 27.7349 74.1384 27.4865V26.8456C73.9088 27.1348 73.6115 27.3647 73.272 27.5155C72.9325 27.6664 72.5609 27.7337 72.1892 27.7116C71.2578 27.7116 70.3645 27.3467 69.7059 26.6971C69.0473 26.0474 68.6772 25.1664 68.6772 24.2477C68.6772 23.329 69.0473 22.4479 69.7059 21.7983C70.3645 21.1487 71.2578 20.7837 72.1892 20.7837C72.5579 20.766 72.9254 20.8353 73.2614 20.9859C73.5974 21.1366 73.892 21.3641 74.1208 21.6497L74.1384 20.9309ZM72.3122 26.352C72.8455 26.3164 73.3436 26.0762 73.6997 25.6829C74.0557 25.2896 74.2416 24.7744 74.2174 24.2477C74.1701 23.8858 74.018 23.5452 73.7794 23.2664C73.5407 22.9877 73.2256 22.7828 72.8718 22.6763C72.5181 22.5698 72.1407 22.5661 71.7849 22.6658C71.4291 22.7656 71.11 22.9644 70.8659 23.2384C70.6217 23.5125 70.4629 23.8502 70.4085 24.2111C70.3541 24.5719 70.4063 24.9406 70.559 25.2729C70.7116 25.6052 70.9582 25.887 71.2692 26.0846C71.5802 26.2821 71.9423 26.387 72.3122 26.3867V26.352Z" fill="white"/>
<path d="M64.7171 27.7116C64.0225 27.7116 63.3435 27.5084 62.7659 27.1278C62.1884 26.7472 61.7382 26.2062 61.4724 25.5732C61.2066 24.9403 61.1371 24.2438 61.2726 23.5719C61.4081 22.8999 61.7426 22.2827 62.2337 21.7983C62.7249 21.3138 63.3507 20.9839 64.0319 20.8503C64.7132 20.7166 65.4193 20.7852 66.0611 21.0474C66.7028 21.3095 67.2513 21.7535 67.6372 22.3232C68.0231 22.8928 68.2291 23.5625 68.2291 24.2476C68.2291 25.1663 67.8591 26.0474 67.2004 26.697C66.5418 27.3467 65.6485 27.7116 64.7171 27.7116ZM64.7171 26.3433C65.1486 26.3782 65.5808 26.2838 65.9571 26.0725C66.3334 25.8611 66.6362 25.5427 66.8261 25.1589C67.0159 24.775 67.0838 24.3436 67.021 23.921C66.9582 23.4985 66.7676 23.1044 66.4741 22.7905C66.1805 22.4765 65.7978 22.2572 65.3758 22.1613C64.9539 22.0654 64.5124 22.0973 64.1091 22.2528C63.7059 22.4084 63.3596 22.6804 63.1156 23.0332C62.8716 23.386 62.7413 23.8032 62.7416 24.2303C62.7294 24.7585 62.9259 25.2707 63.2897 25.6586C63.6534 26.0465 64.1559 26.2796 64.6907 26.3087L64.7171 26.3433Z" fill="white"/>
<path d="M57.0701 27.7116C56.3755 27.7116 55.6965 27.5084 55.1189 27.1278C54.5414 26.7472 54.0913 26.2062 53.8254 25.5732C53.5596 24.9403 53.4901 24.2438 53.6256 23.5719C53.7611 22.8999 54.0956 22.2827 54.5867 21.7983C55.0779 21.3138 55.7037 20.9839 56.3849 20.8503C57.0662 20.7166 57.7724 20.7852 58.4141 21.0474C59.0558 21.3095 59.6043 21.7535 59.9902 22.3232C60.3761 22.8928 60.5821 23.5625 60.5821 24.2476C60.5821 25.1663 60.2121 26.0474 59.5535 26.697C58.8948 27.3467 58.0016 27.7116 57.0701 27.7116ZM57.0701 26.3433C57.5017 26.3782 57.9339 26.2838 58.3101 26.0725C58.6864 25.8611 58.9893 25.5427 59.1791 25.1589C59.3689 24.775 59.4369 24.3436 59.3741 23.921C59.3113 23.4985 59.1206 23.1044 58.8271 22.7905C58.5336 22.4765 58.1508 22.2572 57.7288 22.1613C57.3069 22.0654 56.8654 22.0973 56.4622 22.2528C56.0589 22.4084 55.7126 22.6804 55.4686 23.0332C55.2246 23.386 55.0943 23.8032 55.0946 24.2303C55.0826 24.7628 55.2828 25.2787 55.6521 25.6673C56.0215 26.0559 56.5306 26.2862 57.0701 26.3087V26.3433Z" fill="white"/>
<path d="M48.0176 21.8142H52.6622L52.6183 23.2691H48.0176V21.8142Z" fill="white"/>
<path d="M51.7492 18.3849L50.6868 19.4327C50.3312 19.09 49.9093 18.8214 49.4462 18.6428C48.9832 18.4643 48.4884 18.3795 47.9914 18.3935C46.9435 18.3935 45.9386 18.8041 45.1976 19.5349C44.4566 20.2658 44.0404 21.257 44.0404 22.2905C44.0404 23.324 44.4566 24.3152 45.1976 25.0461C45.9386 25.7769 46.9435 26.1874 47.9914 26.1874C50.16 26.1874 51.7053 24.9404 51.7053 22.2905C51.7142 22.1319 51.7142 21.9728 51.7053 21.8142H53.0662V21.8662C53.5579 25.5813 51.0029 27.7116 47.9475 27.7116C46.4968 27.7116 45.1055 27.1432 44.0796 26.1314C43.0538 25.1196 42.4775 23.7473 42.4775 22.3165C42.4775 20.8856 43.0538 19.5133 44.0796 18.5016C45.1055 17.4898 46.4968 16.9214 47.9475 16.9214C48.6491 16.8946 49.3488 17.0107 50.0029 17.2625C50.657 17.5143 51.2515 17.8964 51.7492 18.3849Z" fill="white"/>
<path d="M34.8568 17.5709C36.165 18.2896 36.1562 19.4761 34.8568 20.1688L19.5269 28.7421C18.2274 29.4696 17.1738 28.8547 17.1738 27.3825V10.3918C17.1738 8.91099 18.2362 8.3048 19.5269 9.03223L34.8568 17.5709Z" fill="url(#paint0_linear)"/>
<path d="M17.2176 8.52136L27.5517 18.714L17.0859 29.3137L17.2176 8.52136Z" fill="url(#paint1_linear)"/>
<path d="M15.0928 6.42566L27.5516 18.714L31.248 15.2154L15.0928 6.42566Z" fill="url(#paint2_linear)"/>
<path d="M27.5514 18.714L33.2145 24.3862L16.2778 30.0584L27.5514 18.714Z" fill="url(#paint3_linear)"/>
<defs>
<linearGradient id="paint0_linear" x1="34.1961" y1="17.1625" x2="26.9196" y2="17.1625" gradientUnits="userSpaceOnUse">
<stop stop-color="#FBDA09"/>
<stop offset="1" stop-color="#FFBC00"/>
</linearGradient>
<linearGradient id="paint1_linear" x1="16.9198" y1="17.5753" x2="24.5423" y2="16.5188" gradientUnits="userSpaceOnUse">
<stop stop-color="#01E2FF"/>
<stop offset="1" stop-color="#01C4FF"/>
</linearGradient>
<linearGradient id="paint2_linear" x1="20.7682" y1="7.74196" x2="28.386" y2="17.5935" gradientUnits="userSpaceOnUse">
<stop stop-color="#28D781"/>
<stop offset="1" stop-color="#02F076"/>
</linearGradient>
<linearGradient id="paint3_linear" x1="30.4118" y1="21.2539" x2="23.9118" y2="32.3016" gradientUnits="userSpaceOnUse">
<stop stop-color="#F2414E"/>
<stop offset="1" stop-color="#E02554"/>
</linearGradient>
</defs>
</svg>
