<svg width="20" height="19" viewBox="0 0 20 19" fill="none" xmlns="http://www.w3.org/2000/svg">
<path d="M16.1111 0H3.88889C2.85788 0.00121292 1.86945 0.399275 1.14041 1.10687C0.411372 1.81447 0.00124967 2.77383 0 3.77452V11.3236C0.00124967 12.3243 0.411372 13.2836 1.14041 13.9912C1.86945 14.6988 2.85788 15.0969 3.88889 15.0981H6.96181L9.57356 18.1396C9.62567 18.2003 9.69087 18.249 9.76455 18.2825C9.83823 18.316 9.91859 18.3333 9.99995 18.3333C10.0813 18.3333 10.1617 18.316 10.2353 18.2825C10.309 18.249 10.3742 18.2003 10.4263 18.1396L13.0382 15.0981H16.1111C17.1421 15.0969 18.1306 14.6988 18.8596 13.9912C19.5886 13.2836 19.9988 12.3243 20 11.3236V3.77452C19.9988 2.77383 19.5886 1.81447 18.8596 1.10687C18.1306 0.399275 17.1421 0.00121292 16.1111 0V0ZM10 12.402C9.78024 12.402 9.56542 12.3388 9.3827 12.2203C9.19998 12.1018 9.05757 11.9333 8.97347 11.7363C8.88937 11.5392 8.86737 11.3224 8.91024 11.1132C8.95311 10.904 9.05894 10.7118 9.21433 10.561C9.36972 10.4102 9.5677 10.3075 9.78323 10.2659C9.99877 10.2242 10.2222 10.2456 10.4252 10.3272C10.6282 10.4089 10.8018 10.5471 10.9239 10.7244C11.0459 10.9018 11.1111 11.1103 11.1111 11.3236C11.1109 11.6095 10.9938 11.8837 10.7855 12.0859C10.5771 12.2881 10.2946 12.4018 10 12.402ZM11.1111 7.54905C11.1111 7.83507 10.994 8.10937 10.7857 8.31162C10.5773 8.51386 10.2947 8.62748 10 8.62748C9.70531 8.62748 9.4227 8.51386 9.21433 8.31162C9.00595 8.10937 8.88889 7.83507 8.88889 7.54905V4.31374C8.88889 4.02772 9.00595 3.75342 9.21433 3.55117C9.4227 3.34893 9.70531 3.23531 10 3.23531C10.2947 3.23531 10.5773 3.34893 10.7857 3.55117C10.994 3.75342 11.1111 4.02772 11.1111 4.31374V7.54905Z" fill="#B71717"/>
</svg>
