<svg width="20" height="20" viewBox="0 0 20 20" fill="none" xmlns="http://www.w3.org/2000/svg">
<g clip-path="url(#clip0)">
<path d="M14.5725 4.77579H17.1703L13.2021 0.611816V3.41074C13.2021 4.16742 13.8105 4.77579 14.5725 4.77579Z" fill="#A269F7"/>
<path d="M12.3567 3.41064V-0.0390625H4.22968C3.17667 -0.0390625 2.30371 0.828705 2.30371 1.88156V18.0403C2.30371 19.0933 3.17667 19.9609 4.22968 19.9609H15.8276C16.8804 19.9609 17.7534 19.0932 17.7534 18.0403V5.62225H14.5735C13.346 5.62225 12.3567 4.63287 12.3567 3.41064ZM6.6424 10.3049C6.81162 10.1462 7.08154 10.1567 7.24023 10.3261L9.60535 12.8658V6.82343C9.60535 6.59058 9.79578 6.40015 10.0286 6.40015C10.2615 6.40015 10.4519 6.59058 10.4519 6.82343V12.8709L12.817 10.3313C12.9757 10.162 13.2456 10.1514 13.4149 10.3101C13.5842 10.4689 13.5948 10.7387 13.4361 10.9081L10.3355 14.2361C10.2561 14.3207 10.1451 14.3683 10.0233 14.3683C9.90167 14.3683 9.79578 14.3207 9.71124 14.2361L6.61066 10.9081C6.46249 10.7333 6.47302 10.4689 6.6424 10.3049ZM14.8063 16.7334C14.8063 16.9662 14.6159 17.1567 14.383 17.1567H5.67407C5.44122 17.1567 5.25079 16.9662 5.25079 16.7334C5.25079 16.5006 5.44122 16.3101 5.67407 16.3101H14.3884C14.6212 16.3101 14.8063 16.5007 14.8063 16.7334Z" fill="#A269F7"/>
</g>
<defs>
<clipPath id="clip0">
<rect width="20" height="20" fill="white"/>
</clipPath>
</defs>
</svg>
