<svg width="15" height="18" viewBox="0 0 15 18" fill="none" xmlns="http://www.w3.org/2000/svg">
<g clip-path="url(#clip0)">
<path d="M9.49752 6.33466C9.3883 6.33466 9.28356 6.37804 9.20634 6.45527C9.12911 6.53249 9.08572 6.63724 9.08572 6.74645V14.483C9.1001 14.5807 9.14917 14.6701 9.22397 14.7347C9.29876 14.7993 9.3943 14.8348 9.49314 14.8348C9.59197 14.8348 9.68751 14.7993 9.76231 14.7347C9.83711 14.6701 9.88618 14.5807 9.90055 14.483V6.74645C9.90058 6.63874 9.8584 6.5353 9.78306 6.45832C9.70771 6.38134 9.60521 6.33695 9.49752 6.33466Z" fill="#FF0000"/>
<path d="M4.66094 6.33466C4.55173 6.33466 4.44698 6.37804 4.36976 6.45527C4.29253 6.53249 4.24915 6.63724 4.24915 6.74645V14.483C4.26352 14.5807 4.31259 14.6701 4.38739 14.7347C4.46219 14.7993 4.55772 14.8348 4.65656 14.8348C4.75539 14.8348 4.85093 14.7993 4.92573 14.7347C5.00053 14.6701 5.0496 14.5807 5.06397 14.483V6.74645C5.064 6.63874 5.02182 6.5353 4.94648 6.45832C4.87113 6.38134 4.76863 6.33695 4.66094 6.33466Z" fill="#FF0000"/>
<path d="M1.13876 5.20442V15.2978C1.13346 15.8758 1.3498 16.4339 1.74331 16.8574C1.92846 17.0628 2.15391 17.228 2.40563 17.3425C2.65736 17.4571 2.92997 17.5186 3.2065 17.5232H10.9518C11.2257 17.5231 11.4968 17.467 11.7484 17.3586C11.9999 17.2501 12.2268 17.0915 12.415 16.8924C12.8085 16.469 13.0248 15.9109 13.0195 15.3328V5.20442C13.3803 5.1007 13.692 4.87097 13.8978 4.55699C14.1037 4.243 14.19 3.8656 14.1413 3.49334C14.0925 3.12108 13.9118 2.77867 13.632 2.52834C13.3522 2.278 12.9918 2.13634 12.6165 2.1291H10.5137V1.62092C10.5148 1.40921 10.4743 1.19935 10.3943 1.00331C10.3144 0.807278 10.1966 0.628911 10.0477 0.478396C9.89882 0.327881 9.72174 0.208166 9.52659 0.126087C9.33143 0.0440077 9.12202 0.00117141 8.91031 2.39398e-05H5.25672C5.04501 -0.00112978 4.83515 0.0394279 4.63911 0.119381C4.44308 0.199335 4.26471 0.317118 4.11419 0.466005C3.96368 0.614893 3.84396 0.791969 3.76188 0.987124C3.67981 1.18228 3.63697 1.39169 3.63582 1.6034V2.11157H1.5418C1.15473 2.1025 0.777988 2.23693 0.484092 2.48898C0.190197 2.74103 -7.97734e-05 3.09288 -0.05011 3.47681C-0.10014 3.86074 -0.00638797 4.2496 0.2131 4.56855C0.432589 4.8875 0.762299 5.11399 1.13876 5.20442ZM10.9518 16.6471H3.2065C3.03617 16.6403 2.86884 16.6 2.71409 16.5285C2.55935 16.457 2.42021 16.3557 2.30466 16.2304C2.1891 16.1051 2.09939 15.9582 2.04065 15.7982C1.98192 15.6382 1.95531 15.4681 1.96235 15.2978V5.25699H12.1959V15.2978C12.203 15.4681 12.1764 15.6382 12.1176 15.7982C12.0589 15.9582 11.9692 16.1051 11.8536 16.2304C11.7381 16.3557 11.5989 16.457 11.4442 16.5285C11.2894 16.6 11.1221 16.6403 10.9518 16.6471ZM4.46817 1.62092C4.46585 1.51736 4.48395 1.41436 4.52144 1.3178C4.55893 1.22123 4.61508 1.133 4.68669 1.05815C4.75829 0.983293 4.84393 0.923278 4.93874 0.881532C5.03354 0.839787 5.13564 0.817129 5.2392 0.814854H8.89279C8.99635 0.812527 9.09935 0.830627 9.19591 0.868119C9.29248 0.905612 9.38071 0.961763 9.45556 1.03336C9.53042 1.10496 9.59043 1.19061 9.63218 1.28541C9.67392 1.38022 9.69658 1.48231 9.69886 1.58588V2.09405H4.46817V1.62092ZM1.5418 2.95269H12.6165C12.725 2.92561 12.8382 2.92361 12.9476 2.94684C13.057 2.97007 13.1596 3.01791 13.2477 3.08675C13.3359 3.15558 13.4071 3.24359 13.4562 3.34409C13.5052 3.44459 13.5307 3.55494 13.5307 3.66676C13.5307 3.77858 13.5052 3.88893 13.4562 3.98943C13.4071 4.08993 13.3359 4.17794 13.2477 4.24677C13.1596 4.3156 13.057 4.36345 12.9476 4.38668C12.8382 4.40991 12.725 4.40791 12.6165 4.38083H1.5418C1.3466 4.38083 1.15941 4.30329 1.02138 4.16527C0.883362 4.02724 0.805822 3.84005 0.805822 3.64485C0.805822 3.44966 0.883362 3.26246 1.02138 3.12444C1.15941 2.98642 1.3466 2.90888 1.5418 2.90888V2.95269Z" fill="#FF0000"/>
<path d="M7.09539 6.33466C6.98617 6.33466 6.88143 6.37804 6.80421 6.45527C6.72698 6.53249 6.68359 6.63724 6.68359 6.74645V14.483C6.69797 14.5807 6.74704 14.6701 6.82184 14.7347C6.89664 14.7993 6.99217 14.8348 7.09101 14.8348C7.18984 14.8348 7.28538 14.7993 7.36018 14.7347C7.43498 14.6701 7.48405 14.5807 7.49842 14.483V6.74645C7.49845 6.63874 7.45627 6.5353 7.38093 6.45832C7.30558 6.38134 7.20308 6.33695 7.09539 6.33466Z" fill="#FF0000"/>
</g>
<defs>
<clipPath id="clip0">
<rect width="14.15" height="17.5232" fill="white"/>
</clipPath>
</defs>
</svg>
