<svg width="12" height="15" viewBox="0 0 12 15" fill="none" xmlns="http://www.w3.org/2000/svg">
<g clip-path="url(#clip0)">
<path d="M8.0543 5.37213C7.96168 5.37213 7.87286 5.40892 7.80736 5.47442C7.74187 5.53991 7.70508 5.62874 7.70508 5.72136V12.2823C7.71727 12.3653 7.75888 12.4411 7.82232 12.4958C7.88575 12.5506 7.96677 12.5808 8.05059 12.5808C8.13441 12.5808 8.21543 12.5506 8.27886 12.4958C8.34229 12.4411 8.38391 12.3653 8.3961 12.2823V5.72136C8.39612 5.63001 8.36035 5.54229 8.29645 5.47701C8.23256 5.41172 8.14563 5.37407 8.0543 5.37213Z" fill="#BC354D"/>
<path d="M3.95274 5.37213C3.86012 5.37213 3.77129 5.40892 3.7058 5.47442C3.64031 5.53991 3.60352 5.62874 3.60352 5.72136V12.2823C3.61571 12.3653 3.65732 12.4411 3.72075 12.4958C3.78419 12.5506 3.86521 12.5808 3.94903 12.5808C4.03284 12.5808 4.11387 12.5506 4.1773 12.4958C4.24073 12.4411 4.28234 12.3653 4.29454 12.2823V5.72136C4.29456 5.63001 4.25879 5.54229 4.19489 5.47701C4.131 5.41172 4.04407 5.37407 3.95274 5.37213Z" fill="#BC354D"/>
<path d="M0.966652 4.41364V12.9734C0.962155 13.4636 1.14563 13.9369 1.47935 14.296C1.63636 14.4702 1.82755 14.6103 2.04103 14.7074C2.25451 14.8046 2.4857 14.8568 2.72021 14.8607H9.28863C9.52097 14.8606 9.75084 14.813 9.96419 14.7211C10.1775 14.6291 10.3699 14.4946 10.5295 14.3257C10.8632 13.9666 11.0467 13.4933 11.0422 13.0031V4.41364C11.3482 4.32568 11.6125 4.13086 11.7871 3.86458C11.9616 3.59831 12.0349 3.27824 11.9935 2.96255C11.9521 2.64685 11.7989 2.35647 11.5616 2.14417C11.3243 1.93187 11.0187 1.81173 10.7004 1.80559H8.91712V1.37463C8.91809 1.19509 8.8837 1.01712 8.81589 0.850866C8.74809 0.684618 8.6482 0.533352 8.52194 0.405707C8.39567 0.278062 8.2455 0.176537 8.08 0.106929C7.9145 0.0373211 7.73691 0.000993421 7.55736 2.03023e-05H4.45891C4.27937 -0.00095812 4.10139 0.0334371 3.93514 0.101242C3.7689 0.169047 3.61763 0.268934 3.48999 0.395199C3.36234 0.521464 3.26082 0.671635 3.19121 0.837137C3.1216 1.00264 3.08527 1.18023 3.0843 1.35977V1.79073H1.30845C0.980193 1.78304 0.660694 1.89705 0.411454 2.1108C0.162214 2.32455 0.000848521 2.62294 -0.0415799 2.94853C-0.0840084 3.27413 -0.00450119 3.6039 0.181637 3.87439C0.367776 4.14488 0.647388 4.33695 0.966652 4.41364ZM9.28863 14.1177H2.72021C2.57576 14.1119 2.43386 14.0778 2.30262 14.0171C2.17139 13.9565 2.05339 13.8706 1.9554 13.7643C1.8574 13.658 1.78132 13.5335 1.7315 13.3978C1.68169 13.262 1.65913 13.1178 1.6651 12.9734V4.45822H10.3437V12.9734C10.3497 13.1178 10.3272 13.262 10.2773 13.3978C10.2275 13.5335 10.1514 13.658 10.0534 13.7643C9.95545 13.8706 9.83746 13.9565 9.70622 14.0171C9.57499 14.0778 9.43308 14.1119 9.28863 14.1177ZM3.79018 1.37463C3.78821 1.28681 3.80356 1.19946 3.83535 1.11757C3.86715 1.03567 3.91477 0.960851 3.97549 0.897369C4.03621 0.833888 4.10885 0.782992 4.18924 0.747589C4.26964 0.712187 4.35623 0.692972 4.44405 0.691042H7.5425C7.63033 0.689069 7.71768 0.704418 7.79957 0.736214C7.88146 0.76801 7.95629 0.815629 8.01977 0.876351C8.08325 0.937073 8.13414 1.00971 8.16955 1.0901C8.20495 1.1705 8.22416 1.25709 8.22609 1.34491V1.77587H3.79018V1.37463ZM1.30845 2.50405H10.7004C10.7924 2.48108 10.8884 2.47939 10.9812 2.49909C11.074 2.51878 11.161 2.55936 11.2357 2.61774C11.3105 2.67611 11.3709 2.75075 11.4125 2.83598C11.4541 2.92121 11.4757 3.01479 11.4757 3.10962C11.4757 3.20445 11.4541 3.29803 11.4125 3.38326C11.3709 3.46849 11.3105 3.54313 11.2357 3.6015C11.161 3.65987 11.074 3.70045 10.9812 3.72015C10.8884 3.73985 10.7924 3.73815 10.7004 3.71519H1.30845C1.14291 3.71519 0.984159 3.64943 0.867108 3.53238C0.750057 3.41533 0.684299 3.25658 0.684299 3.09104C0.684299 2.92551 0.750057 2.76675 0.867108 2.6497C0.984159 2.53265 1.14291 2.46689 1.30845 2.46689V2.50405Z" fill="#BC354D"/>
<path d="M6.01915 5.37213C5.92653 5.37213 5.8377 5.40892 5.77221 5.47442C5.70672 5.53991 5.66992 5.62874 5.66992 5.72136V12.2823C5.68212 12.3653 5.72373 12.4411 5.78716 12.4958C5.85059 12.5506 5.93162 12.5808 6.01543 12.5808C6.09925 12.5808 6.18027 12.5506 6.24371 12.4958C6.30714 12.4411 6.34875 12.3653 6.36094 12.2823V5.72136C6.36096 5.63001 6.32519 5.54229 6.2613 5.47701C6.1974 5.41172 6.11047 5.37407 6.01915 5.37213Z" fill="#BC354D"/>
</g>
<defs>
<clipPath id="clip0">
<rect width="12" height="14.8607" fill="white"/>
</clipPath>
</defs>
</svg>
