<svg width="20" height="20" viewBox="0 0 20 20" fill="none" xmlns="http://www.w3.org/2000/svg">
<g clip-path="url(#clip0)">
<path d="M14.5807 9.16675C11.5941 9.16675 9.16406 11.5967 9.16406 14.5834C9.16406 17.5701 11.5941 20.0001 14.5807 20.0001C17.5674 20.0001 19.9974 17.5701 19.9974 14.5834C19.9974 11.5967 17.5674 9.16675 14.5807 9.16675ZM16.6282 15.4526C16.954 15.7784 16.954 16.3051 16.6282 16.6309C16.3024 16.9567 15.7757 16.9567 15.4499 16.6309L14.5807 15.7617L13.7116 16.6309C13.3857 16.9567 12.8591 16.9567 12.5332 16.6309C12.2074 16.3051 12.2074 15.7784 12.5332 15.4526L13.4024 14.5834L12.5332 13.7142C12.2074 13.3884 12.2074 12.8617 12.5332 12.5359C12.8591 12.2101 13.3857 12.2101 13.7116 12.5359L14.5807 13.4051L15.4499 12.5359C15.7757 12.2101 16.3024 12.2101 16.6282 12.5359C16.954 12.8617 16.954 13.3884 16.6282 13.7142L15.759 14.5834L16.6282 15.4526Z" fill="#FF0000"/>
<path d="M7.36927 12.5H3.96094C3.61594 12.5 3.33594 12.22 3.33594 11.875C3.33594 11.53 3.61594 11.25 3.96094 11.25H7.36927C7.71427 11.25 7.99427 11.53 7.99427 11.875C7.99427 12.22 7.71427 12.5 7.36927 12.5Z" fill="#FF0000"/>
<path d="M6.8776 15H3.96094C3.61594 15 3.33594 14.72 3.33594 14.375C3.33594 14.03 3.61594 13.75 3.96094 13.75H6.8776C7.2226 13.75 7.5026 14.03 7.5026 14.375C7.5026 14.72 7.2226 15 6.8776 15Z" fill="#FF0000"/>
<path d="M6.875 17.5H2.29167C1.0275 17.5 0 16.4725 0 15.2083V2.29167C0 1.0275 1.0275 0 2.29167 0H11.875C13.1392 0 14.1667 1.0275 14.1667 2.29167V6.925C14.1667 7.27 13.8867 7.55 13.5417 7.55C13.1967 7.55 12.9167 7.27 12.9167 6.925V2.29167C12.9167 1.7175 12.4492 1.25 11.875 1.25H2.29167C1.7175 1.25 1.25 1.7175 1.25 2.29167V15.2083C1.25 15.7825 1.7175 16.25 2.29167 16.25H6.875C7.22 16.25 7.5 16.53 7.5 16.875C7.5 17.22 7.22 17.5 6.875 17.5Z" fill="#FF0000"/>
<path d="M7.08073 5.83333C8.0012 5.83333 8.74739 5.08714 8.74739 4.16666C8.74739 3.24619 8.0012 2.5 7.08073 2.5C6.16025 2.5 5.41406 3.24619 5.41406 4.16666C5.41406 5.08714 6.16025 5.83333 7.08073 5.83333Z" fill="#FF0000"/>
<path d="M9.79165 10H4.375C4.03 10 3.75 9.72001 3.75 9.37501V8.95835C3.75 7.69418 4.7775 6.66669 6.04166 6.66669H8.12499C9.38915 6.66669 10.4167 7.69418 10.4167 8.95835V9.37501C10.4167 9.72001 10.1367 10 9.79165 10Z" fill="#FF0000"/>
</g>
<defs>
<clipPath id="clip0">
<rect width="20" height="20" fill="white"/>
</clipPath>
</defs>
</svg>
