<svg width="20" height="20" viewBox="0 0 20 20" fill="none" xmlns="http://www.w3.org/2000/svg">
<path d="M18.2411 2.38281H1.75675C1.48616 2.38281 1.23284 2.44934 1.00366 2.55898L9.95987 11.5152L11.9673 9.58602C11.9673 9.58602 11.9674 9.58582 11.9675 9.58574C11.9675 9.58566 11.9676 9.58559 11.9676 9.58559L18.9945 2.55914C18.7653 2.44941 18.5118 2.38281 18.2411 2.38281Z" fill="#A269F7"/>
<path d="M19.8237 3.38782L13.2111 10.0001L19.8235 16.6125C19.9331 16.3833 19.9996 16.13 19.9996 15.8594V4.14063C19.9996 3.8702 19.9333 3.61692 19.8237 3.38782Z" fill="#A269F7"/>
<path d="M0.176172 3.38751C0.0665234 3.61669 0 3.87001 0 4.1406V15.8593C0 16.1298 0.0664453 16.3831 0.176016 16.6122L6.78863 9.99997L0.176172 3.38751Z" fill="#A269F7"/>
<path d="M12.3823 10.8286L10.3747 12.758C10.2602 12.8725 10.1103 12.9297 9.96043 12.9297C9.81055 12.9297 9.66059 12.8725 9.54617 12.758L7.61664 10.8286L1.00391 17.4409C1.23313 17.5506 1.4866 17.6172 1.75727 17.6172H18.2416C18.5122 17.6172 18.7655 17.5507 18.9947 17.441L12.3823 10.8286Z" fill="#A269F7"/>
</svg>
