<svg width="25" height="25" viewBox="0 0 25 25" fill="none" xmlns="http://www.w3.org/2000/svg">
<path d="M4.77781 17.5236C4.85571 17.5854 4.94886 17.6159 5.04158 17.6159C5.16605 17.6159 5.28925 17.5613 5.37308 17.4563C5.51872 17.2734 5.48866 17.0071 5.30576 16.8614C4.96664 16.5913 4.6381 16.2979 4.32988 15.9893L1.19773 12.8571L4.42768 9.62718C7.53273 6.52255 12.0497 5.46284 16.2141 6.86083C16.4355 6.93407 16.6756 6.81553 16.7505 6.5941C16.8246 6.37268 16.7056 6.1322 16.4838 6.05768C12.0121 4.55681 7.16269 5.69485 3.82902 9.0281L0 12.8571L3.7308 16.5879C4.06146 16.919 4.41413 17.2336 4.77781 17.5236Z" fill="#C4C4C4"/>
<path d="M21.2693 9.02852C20.6986 8.45781 20.0728 7.94298 19.409 7.49759C19.2151 7.36761 18.9513 7.41926 18.8213 7.61317C18.6909 7.80708 18.743 8.07042 18.9369 8.20082C19.555 8.61531 20.1385 9.09541 20.6702 9.62718L23.8024 12.7593L20.5724 15.9893C17.4458 19.1159 12.7344 20.1731 8.56883 18.6803C8.34867 18.6011 8.10608 18.7158 8.02733 18.936C7.94858 19.1561 8.06289 19.3983 8.28305 19.4775C9.63023 19.9601 11.0308 20.1942 12.422 20.1942C15.6485 20.1942 18.8251 18.9339 21.1711 16.5879L24.9997 12.7593L21.2693 9.02852Z" fill="#C4C4C4"/>
<path d="M12.9293 17.6862C12.0177 17.6862 11.1295 17.433 10.3594 16.9537C10.1617 16.8309 9.90044 16.8911 9.77639 17.0896C9.65276 17.2882 9.71373 17.549 9.91229 17.6726C10.8162 18.2357 11.8598 18.5329 12.9293 18.5329C16.0809 18.5329 18.6449 15.9689 18.6449 12.8173C18.6449 11.6806 18.3117 10.5823 17.6817 9.64115C17.5513 9.44682 17.2879 9.39474 17.0945 9.52472C16.9001 9.65512 16.8481 9.91804 16.978 10.1119C17.5145 10.9134 17.7981 11.8486 17.7981 12.8173C17.7981 15.5024 15.6139 17.6862 12.9293 17.6862Z" fill="#C4C4C4"/>
<path d="M12.9294 7.94849C13.8037 7.94849 14.6606 8.18261 15.4083 8.62589C15.609 8.74486 15.8689 8.67881 15.9883 8.47728C16.1073 8.27618 16.0412 8.01665 15.8397 7.89726C14.9616 7.37693 13.9552 7.10173 12.929 7.10173C9.77735 7.10173 7.21338 9.6657 7.21338 12.8173C7.21338 13.6996 7.40898 14.546 7.7951 15.3326C7.86877 15.4825 8.01907 15.5697 8.17572 15.5697C8.23795 15.5697 8.30188 15.5557 8.36158 15.5265C8.57157 15.4232 8.65837 15.1696 8.55549 14.96C8.22694 14.2903 8.06013 13.5697 8.06013 12.8177C8.06056 10.1327 10.2448 7.94849 12.9294 7.94849Z" fill="#C4C4C4"/>
<path d="M23.1252 2.35694C22.9596 2.1914 22.6921 2.1914 22.5265 2.35694L2.83949 22.044C2.67395 22.2095 2.67395 22.4771 2.83949 22.6426C2.92205 22.7252 3.03043 22.7667 3.13882 22.7667C3.2472 22.7667 3.35558 22.7252 3.43814 22.6426L23.1252 2.9556C23.2907 2.79048 23.2907 2.52248 23.1252 2.35694Z" fill="#C4C4C4"/>
</svg>
