<svg width="19" height="19" viewBox="0 0 19 19" fill="none" xmlns="http://www.w3.org/2000/svg">
<g clip-path="url(#clip0)">
<path d="M18.798 7.72113L9.79166 1.12691C9.61799 0.999771 9.38205 0.999771 9.20845 1.12691L0.202082 7.72113C-0.0179024 7.88222 -0.0656992 8.19112 0.0953925 8.41111C0.256484 8.63109 0.56542 8.67881 0.785367 8.5178L9.50002 2.13706L18.2147 8.51776C18.3026 8.58214 18.4047 8.61313 18.5059 8.61313C18.6579 8.61313 18.8079 8.54318 18.9046 8.41107C19.0657 8.19112 19.0179 7.88222 18.798 7.72113Z" fill="#A269F7"/>
<path d="M16.4123 8.62952C16.1397 8.62952 15.9186 8.85054 15.9186 9.12318V16.9811H11.9694V12.6917C11.9694 11.3306 10.8619 10.2232 9.50084 10.2232C8.13974 10.2232 7.03233 11.3306 7.03233 12.6917V16.9811H3.08303V9.12322C3.08303 8.85058 2.86197 8.62955 2.58937 8.62955C2.31676 8.62955 2.0957 8.85058 2.0957 9.12322V17.4748C2.0957 17.7474 2.31676 17.9685 2.58937 17.9685H7.52599C7.78561 17.9685 7.99806 17.7679 8.01773 17.5132C8.01892 17.5017 8.01966 17.4891 8.01966 17.4748V12.6918C8.01966 11.875 8.6841 11.2106 9.50084 11.2106C10.3176 11.2106 10.982 11.8751 10.982 12.6918V17.4748C10.982 17.489 10.9828 17.5014 10.984 17.5128C11.0034 17.7676 11.2159 17.9685 11.4757 17.9685H16.4123C16.685 17.9685 16.906 17.7474 16.906 17.4748V9.12322C16.9059 8.85054 16.6849 8.62952 16.4123 8.62952Z" fill="#A269F7"/>
</g>
<defs>
<clipPath id="clip0">
<rect width="19" height="19" fill="white"/>
</clipPath>
</defs>
</svg>
