<svg width="30" height="30" viewBox="0 0 30 30" fill="none" xmlns="http://www.w3.org/2000/svg">
<g clip-path="url(#clip0)">
<path d="M27.5834 23.6853L27.4823 23.8066C24.1538 27.8003 19.7202 30.0007 15.0007 30.0007C10.2805 30.0007 5.8476 27.801 2.51837 23.8066L2.41797 23.6853L2.44167 23.5298C3.08451 19.3367 5.27518 15.9684 8.60998 14.0434L8.84704 13.9068L9.03598 14.1048C10.611 15.7572 12.7292 16.6664 15 16.6664C17.2709 16.6664 19.389 15.7565 20.964 14.1048L21.153 13.9068L21.39 14.0434C24.7248 15.9684 26.9155 19.3367 27.559 23.5298L27.5834 23.6853ZM15.0007 14.9826C19.131 14.9826 22.4916 11.622 22.4916 7.49163C22.4916 3.3613 19.131 0 15.0007 0C10.8704 0 7.50977 3.3613 7.50977 7.49094C7.50977 11.6206 10.8704 14.9826 15.0007 14.9826Z" fill="#A269F7"/>
</g>
<defs>
<clipPath id="clip0">
<rect width="30" height="30" fill="white"/>
</clipPath>
</defs>
</svg>
