<svg width="20" height="22" viewBox="0 0 20 22" fill="none" xmlns="http://www.w3.org/2000/svg">
<path d="M14.1973 1H5.8004C4.99105 1 4.33203 1.65902 4.33203 2.46837V19.5318C4.33203 20.3415 4.99105 21.0005 5.8004 21.0005H14.1969C15.0066 21.0005 15.6656 20.3415 15.6656 19.5321V2.46837C15.6656 1.65902 15.0066 1 14.1973 1ZM4.99871 3.66673H14.999V16.3337H4.99871V3.66673ZM5.8004 1.66668H14.1969C14.6393 1.66668 14.999 2.02636 14.999 2.46837V3.00005H4.99871V2.46837C4.99871 2.02636 5.35839 1.66668 5.8004 1.66668ZM14.1973 20.3338H5.8004C5.35839 20.3338 4.99871 19.9741 4.99871 19.5321V17.0004H14.999V19.5321C14.999 19.9741 14.6393 20.3338 14.1973 20.3338Z" fill="#A269F7" stroke="#A269F7" stroke-width="0.5"/>
<path d="M9.99938 17.3337C9.26403 17.3337 8.66602 17.9317 8.66602 18.6671C8.66602 19.4024 9.26403 20.0005 9.99938 20.0005C10.7347 20.0005 11.3327 19.4024 11.3327 18.6671C11.3327 17.9317 10.7347 17.3337 9.99938 17.3337ZM9.99938 19.3338C9.63171 19.3338 9.3327 19.0348 9.3327 18.6671C9.3327 18.2994 9.63171 18.0004 9.99938 18.0004C10.3671 18.0004 10.6661 18.2994 10.6661 18.6671C10.6661 19.0348 10.3671 19.3338 9.99938 19.3338Z" fill="#A269F7" stroke="#A269F7" stroke-width="0.5"/>
<path d="M8.66537 2.66671H9.99874C10.1831 2.66671 10.3321 2.5177 10.3321 2.33336C10.3321 2.14903 10.1831 2.00002 9.99874 2.00002H8.66537C8.48103 2.00002 8.33203 2.14903 8.33203 2.33336C8.33203 2.5177 8.48103 2.66671 8.66537 2.66671Z" fill="#A269F7" stroke="#A269F7" stroke-width="0.5"/>
<path d="M10.9994 2.66671H11.3327C11.517 2.66671 11.666 2.5177 11.666 2.33336C11.666 2.14903 11.517 2.00002 11.3327 2.00002H10.9994C10.815 2.00002 10.666 2.14903 10.666 2.33336C10.666 2.5177 10.815 2.66671 10.9994 2.66671Z" fill="#A269F7" stroke="#A269F7" stroke-width="0.5"/>
</svg>
