<svg width="15" height="15" viewBox="0 0 15 15" fill="none" xmlns="http://www.w3.org/2000/svg">
<path d="M10.1128 7.06866L5.76856 2.74174C5.72636 2.68633 5.6727 2.64068 5.61126 2.60788C5.54982 2.57508 5.48203 2.55591 5.41251 2.55168C5.34299 2.54744 5.27338 2.55824 5.20841 2.58334C5.14344 2.60844 5.08465 2.64725 5.03603 2.69712C4.98742 2.747 4.95012 2.80676 4.92669 2.87235C4.90326 2.93794 4.89424 3.00781 4.90024 3.07719C4.90625 3.14658 4.92714 3.21386 4.9615 3.27445C4.99585 3.33503 5.04287 3.3875 5.09933 3.42827L9.0801 7.40904L5.09933 11.3898C5.02891 11.4823 4.99405 11.5969 5.00112 11.7129C5.00818 11.8289 5.05669 11.9385 5.13781 12.0217C5.21893 12.105 5.32726 12.1563 5.44304 12.1663C5.55882 12.1763 5.67435 12.1444 5.76856 12.0764L10.0955 7.74943C10.186 7.66029 10.2383 7.53952 10.2416 7.41254C10.2448 7.28556 10.1986 7.16228 10.1128 7.06866Z" fill="black"/>
</svg>
