<svg width="146" height="38" viewBox="0 0 146 38" fill="none" xmlns="http://www.w3.org/2000/svg">
<g clip-path="url(#clip0)">
<path fill-rule="evenodd" clip-rule="evenodd" d="M48.7312 29.8835V8.20761H56.4275C58.5345 8.20761 60.2412 8.88613 61.5476 10.2432C62.1836 10.885 62.6851 11.6483 63.0225 12.488C63.3599 13.3277 63.5262 14.2268 63.5118 15.1322C63.5279 16.4017 63.1788 17.649 62.5064 18.7242C61.8314 19.7969 60.8454 20.6361 59.6811 21.129L63.7678 29.8835H58.5314L55.0195 21.8044H53.423V29.8835H48.7312ZM53.4253 18.0511H56.2041C56.5539 18.0623 56.9019 17.9963 57.2236 17.8578C57.5453 17.7193 57.8328 17.5117 58.066 17.2495C58.5317 16.6474 58.7831 15.9059 58.7802 15.1434C58.7772 14.3809 58.5201 13.6414 58.0497 13.0429C57.8184 12.7774 57.5316 12.5665 57.2097 12.4251C56.8879 12.2837 56.539 12.2154 56.1878 12.225H53.4253V18.0511Z" fill="black"/>
<path fill-rule="evenodd" clip-rule="evenodd" d="M68.6458 22.6387V8.20761H73.3399V22.2508C73.3399 23.5128 73.6502 24.5013 74.2708 25.2165C74.5946 25.5573 74.9842 25.8282 75.4157 26.0129C75.8472 26.1975 76.3117 26.292 76.7808 26.2905C77.2499 26.2889 77.7137 26.1915 78.1441 26.004C78.5744 25.8165 78.9622 25.543 79.2838 25.2001C79.9044 24.4741 80.2147 23.491 80.2147 22.2508V8.20761H84.9088V22.6364C84.9088 24.8597 84.116 26.6927 82.5303 28.1354C80.9634 29.5691 78.9084 30.3445 76.7889 30.3018C74.5113 30.3018 72.5851 29.5859 71.0103 28.1541C69.4355 26.7223 68.6473 24.8838 68.6458 22.6387Z" fill="black"/>
<path fill-rule="evenodd" clip-rule="evenodd" d="M90.0242 29.8858V8.20996H94.7183V16.2259L100.306 8.20996H105.799L98.8679 17.6679L106.788 29.8858H101.232L96.0262 21.5473L94.7183 23.3445V29.8858H90.0242Z" fill="black"/>
<path fill-rule="evenodd" clip-rule="evenodd" d="M109.024 29.8835L115.496 8.20761H120.924L127.405 29.8835H122.657L121.222 24.6579H115.219L113.783 29.8835H109.024ZM116.274 20.8416H120.17L119.05 16.7471C118.794 15.8699 118.517 14.6407 118.219 13.0593C118.007 14.2138 117.73 15.443 117.388 16.7471L116.274 20.8416Z" fill="black"/>
<path fill-rule="evenodd" clip-rule="evenodd" d="M133.882 29.8835L127.4 8.20761H132.157L135.765 21.3534C135.999 22.1869 136.276 23.4691 136.595 25.2001C136.915 23.4691 137.192 22.1869 137.426 21.3534L141.034 8.20761H145.791L139.309 29.8835H133.882Z" fill="black"/>
<path d="M18.9209 38C29.3706 38 37.8417 29.4934 37.8417 19C37.8417 8.50659 29.3706 0 18.9209 0C8.47116 0 0 8.50659 0 19C0 29.4934 8.47116 38 18.9209 38Z" fill="#A269F7"/>
<path fill-rule="evenodd" clip-rule="evenodd" d="M22.3677 37.6845L13.6124 28.8038C13.0894 28.4082 12.6979 27.8629 12.4895 27.2395C12.281 26.6162 12.2655 25.9441 12.4448 25.3117C12.6242 24.6793 12.9901 24.1162 13.4942 23.6967C13.9984 23.2771 14.6173 23.0207 15.2694 22.9612C15.5394 22.9355 15.9164 22.9052 16.1724 22.9052H20.1288C21.2969 22.9052 22.4172 22.4392 23.2432 21.6097C24.0692 20.7803 24.5332 19.6553 24.5332 18.4823C24.5332 17.3093 24.0692 16.1844 23.2432 15.3549C22.4172 14.5255 21.2969 14.0595 20.1288 14.0595C17.6386 14.0595 15.195 14.0408 12.7118 14.0408C12.6047 14.0408 12.4976 14.0408 12.3929 14.0291C11.5416 14.0163 10.7295 13.6676 10.1321 13.0585C9.53461 12.4493 9.19977 11.6286 9.19987 10.7737C9.19987 10.7737 9.19987 10.755 9.19987 10.7433C9.19417 10.4075 9.24856 10.0735 9.36045 9.75706C9.56675 9.1267 9.95993 8.57469 10.4873 8.17497C11.0148 7.77525 11.6512 7.54691 12.3115 7.52053H12.4651H20.1265C21.565 7.5131 22.9907 7.79213 24.3211 8.3415C25.6516 8.89086 26.8603 9.69965 27.8775 10.7211C28.8947 11.7425 29.7001 12.9564 30.2472 14.2924C30.7943 15.6284 31.0722 17.06 31.0647 18.5045C31.0687 20.9131 30.2816 23.2558 28.8255 25.1697C27.3693 27.0837 25.3253 28.462 23.01 29.0913L28.9935 35.0834C26.9698 36.3659 24.721 37.2487 22.3677 37.6845Z" fill="white"/>
</g>
<defs>
<clipPath id="clip0">
<rect width="145.788" height="38" fill="white"/>
</clipPath>
</defs>
</svg>
