<svg width="17" height="17" viewBox="0 0 17 17" fill="none" xmlns="http://www.w3.org/2000/svg">
<path d="M15.8689 15.235L12.2237 11.5898C13.2015 10.4656 13.7935 8.99889 13.7935 7.39579C13.7935 3.86696 10.9232 1 7.39774 1C3.86892 1 1.00195 3.87029 1.00195 7.39579C1.00195 10.9213 3.87224 13.7916 7.39774 13.7916C9.00084 13.7916 10.4676 13.1996 11.5918 12.2217L15.237 15.867C15.3235 15.9534 15.4399 16 15.5529 16C15.666 16 15.7824 15.9568 15.8689 15.867C16.0419 15.694 16.0419 15.408 15.8689 15.235ZM1.89663 7.39579C1.89663 4.36253 4.36448 1.898 7.39441 1.898C10.4277 1.898 12.8922 4.36585 12.8922 7.39579C12.8922 10.4257 10.4277 12.8969 7.39441 12.8969C4.36448 12.8969 1.89663 10.429 1.89663 7.39579Z" fill="#808080" stroke="#808080" stroke-width="0.5"/>
</svg>
