<svg width="45" height="45" viewBox="0 0 45 45" fill="none" xmlns="http://www.w3.org/2000/svg">
<ellipse cx="22.5" cy="22.5" rx="22.5" ry="22.5" transform="rotate(-180 22.5 22.5)" fill="white"/>
<path d="M33.3152 32.4419L28.2513 27.378C29.6097 25.8163 30.4321 23.7787 30.4321 21.5516C30.4321 16.6494 26.4447 12.6666 21.5471 12.6666C16.6449 12.6666 12.6621 16.654 12.6621 21.5516C12.6621 26.4493 16.6495 30.4367 21.5471 30.4367C23.7741 30.4367 25.8117 29.6142 27.3734 28.2558L32.4374 33.3198C32.5575 33.4399 32.7192 33.5046 32.8763 33.5046C33.0334 33.5046 33.1951 33.4445 33.3152 33.3198C33.5555 33.0795 33.5555 32.6822 33.3152 32.4419ZM13.905 21.5516C13.905 17.3379 17.3333 13.9141 21.5425 13.9141C25.7563 13.9141 29.18 17.3425 29.18 21.5516C29.18 25.7608 25.7563 29.1938 21.5425 29.1938C17.3333 29.1938 13.905 25.7654 13.905 21.5516Z" fill="black" stroke="black" stroke-width="0.5"/>
<path d="M22.529 18.139V20.989H25.303V22.433H22.529V25.264H20.933V22.433H18.178V20.989H20.933V18.139H22.529Z" fill="black"/>
</svg>
