<svg width="20" height="20" viewBox="0 0 20 20" fill="none" xmlns="http://www.w3.org/2000/svg">
<path d="M19.6507 15.0609C19.6582 15.0594 19.6656 15.0574 19.673 15.0555C19.6793 15.0539 19.6856 15.0525 19.6918 15.0506C19.699 15.0484 19.7061 15.0457 19.7132 15.0432C19.7194 15.0409 19.7257 15.0389 19.7319 15.0363C19.7385 15.0335 19.745 15.0303 19.7514 15.0272C19.7577 15.0242 19.7642 15.0214 19.7703 15.0181C19.7765 15.0148 19.7824 15.011 19.7884 15.0074C19.7946 15.0037 19.8008 15.0003 19.8068 14.9962C19.8133 14.9919 19.8192 14.9872 19.8254 14.9826C19.8306 14.9787 19.8359 14.975 19.841 14.9709C19.8504 14.9632 19.8593 14.955 19.868 14.9465C19.8695 14.945 19.8712 14.9438 19.8728 14.9422C19.8744 14.9406 19.8758 14.9388 19.8773 14.9371C19.8857 14.9285 19.8938 14.9198 19.9014 14.9105C19.9058 14.9051 19.9097 14.8994 19.9139 14.8938C19.9182 14.888 19.9227 14.8824 19.9267 14.8764C19.9309 14.87 19.9347 14.8633 19.9386 14.8567C19.9419 14.8512 19.9455 14.8457 19.9485 14.84C19.9521 14.8334 19.9551 14.8265 19.9583 14.8197C19.9611 14.8137 19.9641 14.8077 19.9667 14.8015C19.9695 14.7949 19.9717 14.7881 19.9741 14.7814C19.9765 14.7748 19.9791 14.7682 19.9811 14.7615C19.9832 14.7547 19.9847 14.7478 19.9864 14.7408C19.9881 14.734 19.99 14.7273 19.9914 14.7204C19.993 14.7123 19.994 14.704 19.9951 14.6958C19.9959 14.69 19.997 14.6843 19.9976 14.6785C19.9991 14.6641 19.9998 14.6497 19.9998 14.6352V5.36442C19.9998 5.12483 19.8057 4.93069 19.5661 4.93069H5.90346C5.89965 4.93069 5.89595 4.93115 5.89213 4.93127C5.88386 4.9315 5.87565 4.93185 5.86744 4.93254C5.8609 4.93306 5.85442 4.93381 5.84795 4.93468C5.84054 4.9356 5.8332 4.9367 5.82586 4.93803C5.81897 4.93925 5.81215 4.94069 5.80538 4.94225C5.7985 4.94387 5.79162 4.94561 5.7848 4.94758C5.77803 4.94948 5.77138 4.95157 5.76479 4.95376C5.75802 4.95608 5.75125 4.95851 5.7446 4.96117C5.7383 4.96365 5.73211 4.9662 5.72598 4.96897C5.71916 4.97204 5.71239 4.97533 5.70568 4.97875C5.69996 4.9817 5.69435 4.9847 5.6888 4.98788C5.68209 4.9917 5.67549 4.99575 5.66896 4.99991C5.66358 5.00338 5.65832 5.00697 5.65311 5.01061C5.64698 5.01495 5.64091 5.01946 5.63495 5.0242C5.62952 5.02854 5.6242 5.03299 5.61894 5.03756C5.61373 5.04213 5.60858 5.0467 5.60355 5.05156C5.59783 5.05705 5.59233 5.06278 5.5869 5.06856C5.58418 5.07145 5.58129 5.07399 5.57868 5.07694C5.57712 5.07868 5.57591 5.08059 5.5744 5.08232C5.56897 5.08863 5.56388 5.09522 5.55879 5.10187C5.55509 5.10673 5.55127 5.11158 5.5478 5.11656C5.54329 5.12304 5.53913 5.12969 5.53496 5.13639C5.53155 5.14189 5.52802 5.14732 5.5249 5.15293C5.52126 5.15941 5.51808 5.16606 5.51478 5.17271C5.51177 5.17878 5.50865 5.18486 5.50593 5.19104C5.5031 5.19758 5.50061 5.20435 5.49813 5.211C5.49564 5.21753 5.49309 5.22401 5.49096 5.2306C5.48882 5.23725 5.48708 5.24402 5.48523 5.25078C5.48338 5.25772 5.48141 5.26461 5.47985 5.2716C5.47841 5.27814 5.47742 5.28479 5.47627 5.29138C5.47499 5.2989 5.47372 5.30642 5.4728 5.31394C5.47204 5.32018 5.4717 5.32654 5.47123 5.3329C5.47066 5.341 5.47014 5.3491 5.47002 5.35725C5.46996 5.35962 5.46967 5.36194 5.46967 5.36431V8.03912C5.46967 8.27871 5.66381 8.47285 5.90341 8.47285C6.143 8.47285 6.33714 8.27871 6.33714 8.03912V6.3276L10.1934 9.74178C10.1733 9.75595 10.1539 9.77162 10.1358 9.78961L6.33708 13.5884V10.738C6.33708 10.4984 6.14294 10.3042 5.90335 10.3042C5.66375 10.3042 5.46962 10.4984 5.46962 10.738V11.2679H3.22866C2.98906 11.2679 2.79492 11.4621 2.79492 11.7017C2.79492 11.9413 2.98906 12.1354 3.22866 12.1354H5.46962V14.6355C5.46962 14.8751 5.66375 15.0692 5.90335 15.0692H19.566C19.5803 15.0692 19.5945 15.0685 19.6088 15.0671C19.6154 15.0665 19.6218 15.0652 19.6284 15.0643C19.6359 15.0632 19.6433 15.0624 19.6507 15.0609ZM19.1323 13.5884L15.3335 9.78967C15.331 9.78724 15.3284 9.78521 15.326 9.7829L18.1818 7.35995C18.3645 7.20496 18.3869 6.9313 18.2319 6.74861C18.077 6.56604 17.8034 6.54349 17.6206 6.69853L12.7407 10.8387L7.0476 5.79821H19.1323V13.5884ZM10.7493 10.4031C10.7803 10.3722 10.8054 10.3377 10.825 10.3011L12.4472 11.7373C12.5292 11.8099 12.6319 11.8463 12.7347 11.8463C12.8345 11.8463 12.9343 11.812 13.0154 11.7433L14.6686 10.3407C14.6836 10.3627 14.7006 10.3836 14.7201 10.4031L18.5188 14.2019H6.95056L10.7493 10.4031Z" fill="#2B9E6E"/>
<path d="M0.433734 9.8704H7.75904C7.99864 9.8704 8.19277 9.67626 8.19277 9.43667C8.19277 9.19707 7.99864 9.00293 7.75904 9.00293H0.433734C0.194139 9.00293 0 9.19707 0 9.43667C0 9.67626 0.194139 9.8704 0.433734 9.8704Z" fill="#2B9E6E"/>
<path d="M1.1935 7.48018H4.48265C4.72225 7.48018 4.91638 7.28604 4.91638 7.04644C4.91638 6.80685 4.72225 6.61271 4.48265 6.61271H1.1935C0.953905 6.61271 0.759766 6.80685 0.759766 7.04644C0.759766 7.28604 0.953905 7.48018 1.1935 7.48018Z" fill="#2B9E6E"/>
<path d="M3.61445 13.0993H0.433734C0.194139 13.0993 0 13.2935 0 13.5331C0 13.7727 0.194139 13.9668 0.433734 13.9668H3.61445C3.85405 13.9668 4.04818 13.7727 4.04818 13.5331C4.04818 13.2935 3.85405 13.0993 3.61445 13.0993Z" fill="#2B9E6E"/>
</svg>
