<svg width="11" height="15" viewBox="0 0 11 15" fill="none" xmlns="http://www.w3.org/2000/svg">
<path d="M5.50001 0C2.74305 0 0.5 2.24306 0.5 5.00001C0.5 5.82765 0.706924 6.64825 1.10029 7.3761L5.22658 14.8389C5.28151 14.9384 5.38619 15 5.50001 15C5.61382 15 5.7185 14.9384 5.77343 14.8389L9.90124 7.37364C10.2931 6.64825 10.5 5.82762 10.5 4.99998C10.5 2.24306 8.25696 0 5.50001 0ZM5.50001 7.5C4.12153 7.5 3.00002 6.37849 3.00002 5.00001C3.00002 3.62153 4.12153 2.50002 5.50001 2.50002C6.87848 2.50002 7.99999 3.62153 7.99999 5.00001C7.99999 6.37849 6.87848 7.5 5.50001 7.5Z" fill="#A269F7"/>
</svg>
