<svg width="61" height="61" viewBox="0 0 61 61" fill="none" xmlns="http://www.w3.org/2000/svg">
<rect width="59.0323" height="60" rx="7" fill="white"/>
<g clip-path="url(#clip0)">
<path d="M42.374 39.1853L42.2745 39.3066C38.9997 43.3003 34.6376 45.5007 29.9942 45.5007C25.3502 45.5007 20.9888 43.301 17.7132 39.3066L17.6144 39.1853L17.6378 39.0298C18.2702 34.8367 20.4256 31.4684 23.7066 29.5434L23.9398 29.4068L24.1257 29.6048C25.6753 31.2572 27.7593 32.1664 29.9935 32.1664C32.2278 32.1664 34.3118 31.2565 35.8614 29.6048L36.0473 29.4068L36.2805 29.5434C39.5615 31.4684 41.7169 34.8367 42.35 39.0298L42.374 39.1853ZM29.9942 30.4826C34.0579 30.4826 37.3643 27.122 37.3643 22.9916C37.3643 18.8613 34.0579 15.5 29.9942 15.5C25.9305 15.5 22.6241 18.8613 22.6241 22.9909C22.6241 27.1206 25.9305 30.4826 29.9942 30.4826Z" fill="#A269F7"/>
</g>
<defs>
<clipPath id="clip0">
<rect width="29.5161" height="30" fill="white" transform="translate(15.2346 15.5)"/>
</clipPath>
</defs>
</svg>
