<svg width="90" height="90" viewBox="0 0 90 90" fill="none" xmlns="http://www.w3.org/2000/svg">
<g clip-path="url(#clip0)">
<path d="M89.9819 34.4066C89.9726 34.3032 89.952 34.2011 89.9204 34.1021C89.8998 34.0137 89.8711 33.9274 89.8349 33.844C89.7929 33.7626 89.7426 33.6856 89.685 33.6145C89.6272 33.5299 89.5602 33.452 89.4855 33.3819C89.4614 33.361 89.451 33.3323 89.4255 33.3114L74.9993 22.1074V10.4954C74.9993 8.01009 72.9844 5.99518 70.4991 5.99518H54.2427L47.7337 0.941389C46.1258 -0.312698 43.8709 -0.312698 42.2629 0.941389L35.7526 5.99518H19.4962C17.0109 5.99518 14.996 8.00991 14.996 10.4954V22.1076L0.574306 33.3116C0.548817 33.3327 0.53827 33.3611 0.514362 33.3821C0.439651 33.452 0.372675 33.5301 0.31484 33.6146C0.257181 33.6858 0.206905 33.7626 0.164891 33.8442C0.128503 33.9274 0.100025 34.0139 0.0794572 34.1023C0.0481665 34.1998 0.0275991 34.3004 0.0179306 34.4023C0.0179306 34.4338 0 34.4609 0 34.4924V85.4991C0.00210948 86.4533 0.310797 87.3815 0.880533 88.1467C0.889498 88.1602 0.89108 88.1767 0.901452 88.1887C0.911999 88.2006 0.934501 88.2142 0.949443 88.2307C1.79218 89.3396 3.10287 89.9934 4.49566 89.9993H85.4998C86.898 89.9951 88.2141 89.3382 89.0579 88.2233C89.0699 88.2084 89.088 88.2038 89.0984 88.1889C89.1089 88.1739 89.1103 88.1604 89.1195 88.1469C89.6892 87.3815 89.9979 86.4533 90 85.4993V34.4966C89.9998 34.4651 89.9835 34.438 89.9819 34.4066ZM44.0975 3.3084C44.6213 2.89213 45.3632 2.89213 45.887 3.3084L49.3476 5.99501H40.6473L44.0975 3.3084ZM4.87361 86.9993L44.0977 56.5312C44.6219 56.1156 45.3632 56.1156 45.8872 56.5312L85.1216 86.9993H4.87361ZM86.9998 84.6606L47.7337 54.164C46.1254 52.9109 43.8713 52.9109 42.2629 54.164L2.99546 84.6606V36.7811L27.5773 55.8697C28.2323 56.3775 29.1748 56.2583 29.6827 55.6033C30.1906 54.9484 30.0714 54.0058 29.4164 53.4979L4.4431 34.1065L14.9961 25.9055V37.4966C14.9961 38.3251 15.6678 38.9966 16.4962 38.9966C17.3246 38.9966 17.9962 38.3249 17.9962 37.4966V10.4952C17.9962 9.66673 18.6677 8.99522 19.4962 8.99522H70.4987C71.3272 8.99522 71.9987 9.66673 71.9987 10.4952V37.4966C71.9987 38.3251 72.6702 38.9966 73.4987 38.9966C74.3272 38.9966 74.9988 38.3249 74.9988 37.4966V25.9055L85.5518 34.1065L60.5351 53.5325C60.1048 53.8586 59.8827 54.3909 59.9541 54.9262C60.0255 55.4615 60.379 55.9171 60.8798 56.1191C61.3807 56.3211 61.9514 56.2385 62.3742 55.9025L86.9994 36.7811V84.6606H86.9998Z" fill="black"/>
<path d="M62.9999 35.9965V29.9963C62.9999 20.0547 54.9406 11.9954 44.999 11.9954C35.0573 11.9954 26.998 20.0547 26.998 29.9963C26.998 39.9379 35.0573 47.9972 44.999 47.9972C45.8275 47.9972 46.499 47.3257 46.499 46.4972C46.499 45.6687 45.8275 44.9972 44.999 44.9972C36.7143 44.9972 29.9983 38.2811 29.9983 29.9965C29.9983 21.7118 36.7143 14.9958 44.999 14.9958C53.2836 14.9958 59.9997 21.7118 59.9997 29.9965V35.9967C59.9997 37.6537 58.6564 38.9969 56.9994 38.9969C55.3424 38.9969 53.9992 37.6537 53.9992 35.9967V29.9965C53.9992 29.168 53.3277 28.4965 52.4992 28.4965C51.6707 28.4965 50.9992 29.168 50.9992 29.9965C50.9992 33.3103 48.3128 35.9967 44.999 35.9967C41.6851 35.9967 38.9987 33.3103 38.9987 29.9965C38.9987 26.6827 41.6851 23.9962 44.999 23.9962C45.8275 23.9962 46.499 23.3247 46.499 22.4962C46.499 21.6677 45.8275 20.9962 44.999 20.9962C40.9707 20.9872 37.427 23.6559 36.323 27.53C35.219 31.404 36.8235 35.5398 40.2514 37.6557C43.6793 39.7715 48.0955 39.352 51.0637 36.6285C51.3903 39.8008 54.1476 42.1596 57.3322 41.991C60.517 41.8222 63.0099 39.1857 62.9999 35.9965Z" fill="#A269F7"/>
</g>
<defs>
<clipPath id="clip0">
<rect width="90" height="90" fill="white"/>
</clipPath>
</defs>
</svg>
