<svg width="95" height="95" viewBox="0 0 95 95" fill="none" xmlns="http://www.w3.org/2000/svg">
<path d="M66.4994 53.8333C64.8622 53.8333 63.2773 54.0455 61.7494 54.4081V6.97458C61.7494 3.13025 58.6207 0 54.7748 0H14.8906C11.0447 0 7.91602 3.13025 7.91602 6.97458V88.0238C7.91602 91.8698 11.0447 95 14.8906 95H54.7732C56.3169 95 57.7641 94.4807 58.9706 93.5544C61.3076 94.4759 63.8409 95 66.4994 95C77.8487 95 87.0827 85.766 87.0827 74.4167C87.0827 63.0673 77.8487 53.8333 66.4994 53.8333ZM57.4158 55.9756C57.3176 56.0231 57.2179 56.069 57.1213 56.1181C56.7745 56.2954 56.4373 56.487 56.1032 56.6833C55.9274 56.7847 55.7549 56.8908 55.5839 56.9984C55.2799 57.19 54.9774 57.3832 54.6845 57.5906C54.4945 57.7236 54.3124 57.8677 54.1272 58.0086C53.6696 58.3538 53.2279 58.7179 52.8019 59.0995C52.5977 59.2832 52.3903 59.4621 52.1924 59.6537C51.9659 59.8737 51.749 60.1033 51.5337 60.3329C51.3516 60.5261 51.1727 60.7208 50.9985 60.9219C50.7895 61.1626 50.5821 61.4048 50.3842 61.6534C50.2211 61.8592 50.0691 62.0714 49.9139 62.282C49.5846 62.7317 49.2743 63.194 48.9798 63.6706C48.842 63.8938 48.6995 64.1139 48.5713 64.3419C48.4114 64.6238 48.2673 64.9135 48.1216 65.2033C48.0029 65.4376 47.8889 65.6735 47.778 65.9142C47.6466 66.2023 47.5184 66.4905 47.4012 66.785C47.284 67.0748 47.1811 67.3693 47.0782 67.6653C46.9579 68.0089 46.8423 68.3557 46.7409 68.7072C46.6143 69.1442 46.4987 69.5843 46.4005 70.0308C46.3514 70.2572 46.3119 70.4884 46.2707 70.718C46.1963 71.1218 46.1345 71.5287 46.0839 71.9388C46.0585 72.1446 46.0332 72.3473 46.0142 72.5547C46.0063 72.6481 45.9889 72.7415 45.9825 72.8349H11.0827V12.6667H58.5827V55.4214C58.1837 55.5877 57.8005 55.784 57.4158 55.9756ZM14.8906 3.16667H54.7732C56.8743 3.16667 58.5827 4.87508 58.5827 6.97458V9.5H11.0827V6.97458C11.0827 4.87508 12.7911 3.16667 14.8906 3.16667ZM55.4588 91.7716C55.2355 91.8112 55.0059 91.8333 54.7748 91.8333H14.8906C12.7911 91.8333 11.0827 90.1249 11.0827 88.0254V76H45.9968C46.0189 76.2834 46.0395 76.5637 46.0728 76.8439C46.0981 77.0498 46.1361 77.2524 46.1662 77.4583C46.258 78.0773 46.3752 78.6853 46.5224 79.2854C46.5684 79.4754 46.6159 79.6623 46.6681 79.8507C46.8549 80.5299 47.0719 81.1933 47.3252 81.8425C47.3569 81.9248 47.3838 82.0103 47.417 82.0927C48.0314 83.6127 48.823 85.0377 49.7651 86.3534C49.8506 86.4738 49.9409 86.5878 50.0295 86.7065C50.4301 87.2417 50.8544 87.7547 51.3025 88.2487C51.4086 88.3658 51.5115 88.483 51.6192 88.597C52.7386 89.7718 53.991 90.8121 55.359 91.6972C55.3939 91.7209 55.4239 91.7494 55.4588 91.7716ZM66.4994 91.8333C64.1339 91.8333 61.8776 91.3552 59.8193 90.497L59.463 90.3355C59.3316 90.2769 59.2049 90.2104 59.0767 90.1487C58.5209 89.8858 57.9842 89.5945 57.4649 89.2778C57.3224 89.1908 57.1783 89.11 57.0389 89.0182C56.7999 88.863 56.5687 88.6983 56.3391 88.5321C56.1681 88.4086 55.9987 88.2819 55.8324 88.1521C55.6187 87.9858 55.4049 87.818 55.2007 87.6423C55.0218 87.4887 54.8508 87.3272 54.6782 87.1673C54.3536 86.8664 54.0417 86.5545 53.7424 86.2299C53.5873 86.0637 53.4305 85.8974 53.2817 85.7233C53.1028 85.5143 52.9334 85.2989 52.7655 85.0836C52.6389 84.9205 52.5154 84.7542 52.3934 84.588C52.2288 84.36 52.0641 84.1304 51.9105 83.8945C51.8092 83.7378 51.7158 83.5747 51.6192 83.4147C51.3579 82.9841 51.1141 82.5408 50.8893 82.0879C50.799 81.9043 50.7072 81.7238 50.6233 81.5369C50.5109 81.2868 50.4048 81.0334 50.305 80.7769C50.2195 80.5584 50.1388 80.3368 50.0612 80.1151C49.9789 79.8792 49.8934 79.6448 49.8205 79.4058C49.6907 78.9735 49.5767 78.5333 49.4817 78.0884C49.4421 77.9063 49.4136 77.7227 49.3804 77.539C49.317 77.1923 49.2616 76.8455 49.2204 76.4924C49.1999 76.323 49.1793 76.1536 49.1634 75.9826C49.1159 75.4664 49.0827 74.9455 49.0827 74.4167C49.0827 73.8799 49.1159 73.3495 49.1634 72.8254C49.1809 72.6386 49.2062 72.4533 49.2299 72.2681C49.2711 71.9372 49.3218 71.6078 49.3804 71.2801C49.4215 71.06 49.4627 70.8399 49.5118 70.6214C49.5751 70.3364 49.6511 70.0593 49.7287 69.7791C49.7936 69.5479 49.8506 69.3136 49.925 69.0856C50.0612 68.6612 50.2148 68.2464 50.3826 67.8363C50.4966 67.5593 50.6264 67.2901 50.7547 67.0193C50.8386 66.842 50.9209 66.6631 51.0112 66.4889C51.1489 66.2197 51.2962 65.9553 51.4482 65.6941C51.5432 65.531 51.6414 65.3711 51.7411 65.2112C51.9042 64.9499 52.0689 64.6887 52.2462 64.4369C52.3364 64.3087 52.4346 64.1868 52.528 64.0601C52.8985 63.5629 53.2943 63.0832 53.7155 62.6272C53.8121 62.5227 53.9039 62.4134 54.0037 62.3105C54.2206 62.0857 54.4486 61.8735 54.6782 61.6613C54.8096 61.5378 54.9426 61.4159 55.0788 61.2972C55.3163 61.0898 55.5601 60.8887 55.8087 60.6939C55.9354 60.5958 56.0652 60.5008 56.1934 60.4058C56.4689 60.2031 56.746 60.0004 57.0358 59.8136C57.0564 59.8009 57.0769 59.7882 57.0975 59.7756C58.1821 59.0789 59.3554 58.4963 60.603 58.0466C60.7075 58.0086 60.8104 57.9674 60.9165 57.9326L61.3836 57.7679C63.0018 57.2708 64.7197 57 66.4994 57C76.1023 57 83.916 64.8138 83.916 74.4167C83.916 84.0196 76.1023 91.8333 66.4994 91.8333Z" fill="black"/>
<path d="M74.6989 65.5959L65.8385 78.3259L59.586 73.1943C58.9115 72.6386 57.9124 72.7399 57.3582 73.4128C56.8025 74.0889 56.9006 75.088 57.5783 75.6406L65.1561 81.8615C65.4411 82.0958 65.7958 82.2225 66.16 82.2225C66.2312 82.2225 66.304 82.2178 66.3769 82.2067C66.8139 82.1465 67.2065 81.9058 67.4599 81.5433L77.2987 67.4057C77.7975 66.6884 77.6217 65.702 76.9029 65.2017C76.184 64.6966 75.1992 64.8771 74.6989 65.5959Z" fill="#A269F7"/>
<path d="M34.8333 77.5833C31.3405 77.5833 28.5 80.4238 28.5 83.9167C28.5 87.4095 31.3405 90.25 34.8333 90.25C38.3262 90.25 41.1667 87.4095 41.1667 83.9167C41.1667 80.4238 38.3262 77.5833 34.8333 77.5833ZM34.8333 87.0833C33.0869 87.0833 31.6667 85.6631 31.6667 83.9167C31.6667 82.1703 33.0869 80.75 34.8333 80.75C36.5798 80.75 38 82.1703 38 83.9167C38 85.6631 36.5798 87.0833 34.8333 87.0833Z" fill="#A269F7"/>
<path d="M28.4993 7.91667H34.8327C35.7067 7.91667 36.416 7.20892 36.416 6.33333C36.416 5.45775 35.7067 4.75 34.8327 4.75H28.4993C27.6253 4.75 26.916 5.45775 26.916 6.33333C26.916 7.20892 27.6253 7.91667 28.4993 7.91667Z" fill="#A269F7"/>
<path d="M39.5833 7.91667H41.1667C42.0407 7.91667 42.75 7.20892 42.75 6.33333C42.75 5.45775 42.0407 4.75 41.1667 4.75H39.5833C38.7093 4.75 38 5.45775 38 6.33333C38 7.20892 38.7093 7.91667 39.5833 7.91667Z" fill="#A269F7"/>
</svg>
