<svg width="20" height="20" viewBox="0 0 20 20" fill="none" xmlns="http://www.w3.org/2000/svg">
<g clip-path="url(#clip0)">
<path d="M7.29248 14.6767V18.5417C7.29248 18.8117 7.46581 19.0508 7.72248 19.1358C7.78665 19.1567 7.85248 19.1667 7.91748 19.1667C8.11248 19.1667 8.30081 19.075 8.42081 18.9117L10.6816 15.835L7.29248 14.6767Z" fill="white"/>
<path d="M19.7366 0.115018C19.5449 -0.020815 19.2932 -0.0391483 19.0849 0.0700183L0.334894 9.86168C0.113227 9.97752 -0.0176062 10.2142 0.000727169 10.4633C0.0198938 10.7133 0.185727 10.9267 0.421561 11.0075L5.63406 12.7892L16.7349 3.29752L8.14489 13.6467L16.8807 16.6325C16.9457 16.6542 17.0141 16.6658 17.0824 16.6658C17.1957 16.6658 17.3082 16.635 17.4074 16.575C17.5657 16.4783 17.6732 16.3158 17.7007 16.1333L19.9924 0.716685C20.0266 0.483352 19.9282 0.251685 19.7366 0.115018Z" fill="white"/>
</g>
<defs>
<clipPath id="clip0">
<rect width="20" height="20" fill="white"/>
</clipPath>
</defs>
</svg>
