<svg width="18" height="18" viewBox="0 0 18 18" fill="none" xmlns="http://www.w3.org/2000/svg">
<path d="M0 6.16593V14.108C0 15.3202 0.98449 16.3047 2.19673 16.3047H15.8033C17.0155 16.3047 18 15.3202 18 14.108V6.16593C18 5.01246 17.0633 4.07572 15.9098 4.07572H12.9857L12.9159 3.77082C12.6331 2.54756 11.5567 1.69531 10.3004 1.69531H7.69592C6.44326 1.69531 5.36694 2.54756 5.08041 3.77082L5.01061 4.07572H2.0902C0.936735 4.07572 0 5.01613 0 6.16593ZM5.37061 4.97572C5.58 4.97572 5.76 4.83246 5.80775 4.62674L5.95837 3.97286C6.14939 3.16103 6.86204 2.59531 7.69592 2.59531H10.3004C11.1343 2.59531 11.8469 3.16103 12.038 3.97286L12.1886 4.62674C12.2363 4.82878 12.4163 4.97572 12.6257 4.97572H15.9061C16.5637 4.97572 17.0963 5.50838 17.0963 6.16593V14.108C17.0963 14.8243 16.5159 15.4047 15.7996 15.4047H2.19673C1.48041 15.4047 0.9 14.8243 0.9 14.108V6.16593C0.9 5.50838 1.43265 4.97572 2.0902 4.97572H5.37061Z" fill="black"/>
<path d="M3.04776 7.4994C3.38048 7.4994 3.65021 7.22967 3.65021 6.89694C3.65021 6.56422 3.38048 6.29449 3.04776 6.29449C2.71504 6.29449 2.44531 6.56422 2.44531 6.89694C2.44531 7.22967 2.71504 7.4994 3.04776 7.4994Z" fill="black"/>
<path d="M8.99936 13.9941C11.0822 13.9941 12.7794 12.2969 12.7794 10.2141C12.7794 8.13122 11.0822 6.43407 8.99936 6.43407C6.9165 6.43407 5.21936 8.12754 5.21936 10.2141C5.21936 12.3006 6.9165 13.9941 8.99936 13.9941ZM8.99936 7.33407C10.5863 7.33407 11.8794 8.62714 11.8794 10.2141C11.8794 11.801 10.5863 13.0941 8.99936 13.0941C7.41242 13.0941 6.11936 11.801 6.11936 10.2141C6.11936 8.62714 7.41242 7.33407 8.99936 7.33407Z" fill="black"/>
</svg>
