<svg width="14" height="14" viewBox="0 0 14 14" fill="none" xmlns="http://www.w3.org/2000/svg">
<path d="M0 4.79575V10.9729C0 11.9157 0.765714 12.6815 1.70857 12.6815H12.2914C13.2343 12.6815 14 11.9157 14 10.9729V4.79575C14 3.8986 13.2714 3.17003 12.3743 3.17003H10.1L10.0457 2.93289C9.82571 1.98146 8.98857 1.3186 8.01143 1.3186H5.98571C5.01143 1.3186 4.17429 1.98146 3.95143 2.93289L3.89714 3.17003H1.62571C0.728571 3.17003 0 3.90146 0 4.79575ZM4.17714 3.87003C4.34 3.87003 4.48 3.7586 4.51714 3.5986L4.63429 3.09003C4.78286 2.4586 5.33714 2.0186 5.98571 2.0186H8.01143C8.66 2.0186 9.21429 2.4586 9.36286 3.09003L9.48 3.5986C9.51714 3.75575 9.65714 3.87003 9.82 3.87003H12.3714C12.8829 3.87003 13.2971 4.28432 13.2971 4.79575V10.9729C13.2971 11.53 12.8457 11.9815 12.2886 11.9815H1.70857C1.15143 11.9815 0.7 11.53 0.7 10.9729V4.79575C0.7 4.28432 1.11429 3.87003 1.62571 3.87003H4.17714Z" fill="white"/>
<path d="M2.36701 5.83289C2.62579 5.83289 2.83558 5.62311 2.83558 5.36432C2.83558 5.10554 2.62579 4.89575 2.36701 4.89575C2.10822 4.89575 1.89844 5.10554 1.89844 5.36432C1.89844 5.62311 2.10822 5.83289 2.36701 5.83289Z" fill="white"/>
<path d="M6.99865 10.8843C8.61865 10.8843 9.93865 9.56433 9.93865 7.94433C9.93865 6.32433 8.61865 5.00433 6.99865 5.00433C5.37865 5.00433 4.05865 6.32148 4.05865 7.94433C4.05865 9.56719 5.37865 10.8843 6.99865 10.8843ZM6.99865 5.70433C8.23294 5.70433 9.23865 6.71005 9.23865 7.94433C9.23865 9.17862 8.23294 10.1843 6.99865 10.1843C5.76437 10.1843 4.75865 9.17862 4.75865 7.94433C4.75865 6.71005 5.76437 5.70433 6.99865 5.70433Z" fill="white"/>
</svg>
