<svg width="37" height="37" viewBox="0 0 37 37" fill="none" xmlns="http://www.w3.org/2000/svg">
<g clip-path="url(#clip0)">
<path d="M0.359375 13.0801V28.9792C0.359375 31.406 2.33021 33.3768 4.75699 33.3768H31.9958C34.4225 33.3768 36.3934 31.406 36.3934 28.9792V13.0801C36.3934 10.771 34.5181 8.89575 32.209 8.89575H26.3553L26.2156 8.28537C25.6494 5.83653 23.4947 4.13043 20.9796 4.13043H15.7657C13.2581 4.13043 11.1034 5.83653 10.5298 8.28537L10.3901 8.89575H4.54373C2.23461 8.89575 0.359375 10.7783 0.359375 13.0801ZM11.1107 10.6974C11.5299 10.6974 11.8903 10.4106 11.9859 9.99883L12.2874 8.68984C12.6698 7.06463 14.0964 5.93213 15.7657 5.93213H20.9796C22.649 5.93213 24.0756 7.06463 24.458 8.68984L24.7595 9.99883C24.8551 10.4033 25.2155 10.6974 25.6346 10.6974H32.2017C33.518 10.6974 34.5843 11.7638 34.5843 13.0801V28.9792C34.5843 30.4132 33.4224 31.5751 31.9884 31.5751H4.75699C3.32299 31.5751 2.16107 30.4132 2.16107 28.9792V13.0801C2.16107 11.7638 3.22739 10.6974 4.54373 10.6974H11.1107Z" fill="#E4E4E4"/>
<path d="M6.45604 15.7495C7.12211 15.7495 7.66207 15.2096 7.66207 14.5435C7.66207 13.8774 7.12211 13.3375 6.45604 13.3375C5.78996 13.3375 5.25 13.8774 5.25 14.5435C5.25 15.2096 5.78996 15.7495 6.45604 15.7495Z" fill="#E4E4E4"/>
<path d="M18.3757 28.7512C22.5454 28.7512 25.9429 25.3537 25.9429 21.1841C25.9429 17.0144 22.5454 13.6169 18.3757 13.6169C14.2061 13.6169 10.8086 17.0071 10.8086 21.1841C10.8086 25.3611 14.2061 28.7512 18.3757 28.7512ZM18.3757 15.4186C21.5526 15.4186 24.1412 18.0072 24.1412 21.1841C24.1412 24.361 21.5526 26.9495 18.3757 26.9495C15.1989 26.9495 12.6103 24.361 12.6103 21.1841C12.6103 18.0072 15.1989 15.4186 18.3757 15.4186Z" fill="#E4E4E4"/>
</g>
<defs>
<clipPath id="clip0">
<rect x="0.359375" y="0.736572" width="36.034" height="36.034" fill="white"/>
</clipPath>
</defs>
</svg>
