<svg width="14" height="14" viewBox="0 0 14 14" fill="none" xmlns="http://www.w3.org/2000/svg">
<g clip-path="url(#clip0)">
<path d="M13.617 6.17063C13.5716 5.88622 13.3042 5.69247 13.0198 5.73785C12.7354 5.78322 12.5417 6.05058 12.587 6.33499C12.5875 6.33811 12.5881 6.34119 12.5886 6.34428C13.1197 9.47042 11.0159 12.4351 7.88978 12.9662C4.76364 13.4972 1.79893 11.3935 1.26788 8.26736C0.736825 5.14123 2.84059 2.17651 5.9667 1.64546C7.8892 1.31889 9.84606 1.99043 11.1629 3.4287L8.85277 4.19838C8.57948 4.28931 8.43168 4.58454 8.52258 4.85783C8.52262 4.85789 8.52265 4.85798 8.52268 4.85804C8.61361 5.13133 8.90883 5.27912 9.18212 5.18822C9.18221 5.18819 9.18227 5.18816 9.18233 5.18816L12.3112 4.14522C12.5242 4.07427 12.6679 3.87489 12.6679 3.65034V0.521486C12.6679 0.233473 12.4344 0 12.1464 0C11.8584 0 11.6249 0.233473 11.6249 0.521486V2.42642C8.93936 -0.127874 4.69159 -0.0214497 2.1373 2.66411C-0.417003 5.34967 -0.31061 9.59743 2.37499 12.1518C5.06058 14.7061 9.30831 14.5997 11.8626 11.9141C13.3192 10.3826 13.9692 8.25456 13.617 6.17063Z" fill="#A269F7"/>
</g>
<defs>
<clipPath id="clip0">
<rect width="14" height="14" fill="white"/>
</clipPath>
</defs>
</svg>
