<svg width="16" height="16" viewBox="0 0 16 16" fill="none" xmlns="http://www.w3.org/2000/svg">
<path d="M10.7877 7.53989L6.15381 2.92451C6.10879 2.86541 6.05156 2.81671 5.98602 2.78173C5.92049 2.74674 5.84818 2.7263 5.77402 2.72178C5.69987 2.71727 5.62561 2.72879 5.55632 2.75556C5.48702 2.78233 5.4243 2.82373 5.37244 2.87692C5.32059 2.93012 5.28081 2.99387 5.25581 3.06383C5.23082 3.13379 5.2212 3.20832 5.2276 3.28233C5.23401 3.35635 5.2563 3.42811 5.29294 3.49273C5.32959 3.55736 5.37973 3.61332 5.43996 3.65682L9.68612 7.90297L5.43996 12.1491C5.36485 12.2477 5.32767 12.3701 5.3352 12.4938C5.34274 12.6175 5.39448 12.7344 5.48101 12.8232C5.56754 12.912 5.68309 12.9667 5.80658 12.9774C5.93008 12.9881 6.05331 12.954 6.15381 12.8814L10.7692 8.26605C10.8657 8.17097 10.9216 8.04214 10.925 7.9067C10.9285 7.77125 10.8792 7.63976 10.7877 7.53989Z" fill="#A269F7"/>
</svg>
