<svg width="22" height="22" viewBox="0 0 22 22" fill="none" xmlns="http://www.w3.org/2000/svg">
<g clip-path="url(#clip0)">
<path d="M11.6903 22H10.3096C9.19291 22 8.28433 21.0915 8.28433 19.9748V19.5076C7.80957 19.356 7.3483 19.1645 6.90516 18.9352L6.57413 19.2662C5.77238 20.0689 4.48809 20.0454 3.70962 19.2659L2.73376 18.2901C1.95392 17.5111 1.93149 16.2272 2.73402 15.4256L3.06479 15.0948C2.83546 14.6517 2.64404 14.1905 2.49232 13.7156H2.02525C0.908574 13.7156 0 12.8071 0 11.6904V10.3096C0 9.19291 0.908574 8.28438 2.02529 8.28438H2.49236C2.64408 7.80957 2.83551 7.34834 3.06483 6.90521L2.7338 6.57422C1.93175 5.77302 1.95388 4.48903 2.73406 3.70971L3.71001 2.7338C4.49028 1.95246 5.77427 1.93295 6.57448 2.73406L6.90521 3.06479C7.34834 2.83551 7.80961 2.64404 8.28438 2.49232V2.02525C8.28438 0.908531 9.19291 0 10.3097 0H11.6904C12.8071 0 13.7156 0.908531 13.7156 2.02525V2.49236C14.1904 2.64404 14.6517 2.83551 15.0948 3.06483L15.4258 2.7338C16.2276 1.93106 17.5119 1.95461 18.2903 2.7341L19.2662 3.70992C20.046 4.4889 20.0685 5.77277 19.2659 6.57443L18.9352 6.90521C19.1645 7.34834 19.3559 7.80953 19.5076 8.28438H19.9747C21.0914 8.28438 22 9.19291 22 10.3096V11.6904C22 12.8071 21.0914 13.7156 19.9747 13.7156H19.5076C19.3559 14.1904 19.1645 14.6517 18.9352 15.0948L19.2662 15.4258C20.0683 16.227 20.0461 17.511 19.2659 18.2903L18.29 19.2662C17.5097 20.0476 16.2257 20.0671 15.4255 19.266L15.0948 18.9353C14.6517 19.1645 14.1904 19.356 13.7156 19.5077V19.9748C13.7156 21.0915 12.8071 22 11.6903 22ZM7.12065 17.5815C7.73627 17.9456 8.39884 18.2206 9.08995 18.399C9.37458 18.4724 9.57344 18.7291 9.57344 19.0231V19.9748C9.57344 20.3807 9.90374 20.7109 10.3097 20.7109H11.6904C12.0963 20.7109 12.4266 20.3807 12.4266 19.9748V19.0231C12.4266 18.7291 12.6255 18.4724 12.9101 18.399C13.6012 18.2206 14.2638 17.9456 14.8794 17.5815C15.1327 17.4317 15.4552 17.4725 15.6633 17.6806L16.3374 18.3547C16.628 18.6457 17.0947 18.6389 17.3782 18.355L18.3548 17.3785C18.6376 17.096 18.6471 16.6292 18.355 16.3376L17.6807 15.6632C17.4726 15.4551 17.4319 15.1326 17.5816 14.8793C17.9457 14.2638 18.2207 13.6012 18.399 12.91C18.4725 12.6254 18.7292 12.4266 19.0231 12.4266H19.9748C20.3807 12.4266 20.711 12.0963 20.711 11.6904V10.3097C20.711 9.90374 20.3807 9.57348 19.9748 9.57348H19.0231C18.7292 9.57348 18.4725 9.37462 18.399 9.09004C18.2207 8.39889 17.9456 7.73631 17.5816 7.12074C17.4319 6.86748 17.4726 6.54496 17.6807 6.3369L18.3548 5.66277C18.6462 5.3717 18.6386 4.90506 18.355 4.62185L17.3786 3.64538C17.0955 3.36196 16.6287 3.35367 16.3377 3.64512L15.6633 4.31952C15.4553 4.52762 15.1326 4.56835 14.8794 4.41856C14.2638 4.05449 13.6012 3.77945 12.9101 3.60108C12.6255 3.52765 12.4266 3.27095 12.4266 2.977V2.02525C12.4266 1.61932 12.0963 1.28906 11.6904 1.28906H10.3097C9.90378 1.28906 9.57348 1.61932 9.57348 2.02525V2.97692C9.57348 3.27087 9.37462 3.52756 9.09 3.601C8.39889 3.77936 7.73631 4.0544 7.1207 4.41848C6.86735 4.56822 6.54487 4.52749 6.33682 4.31943L5.66272 3.6453C5.37208 3.35431 4.90531 3.36106 4.62185 3.645L3.6453 4.6215C3.36248 4.90398 3.35302 5.37075 3.64504 5.66242L4.31943 6.33682C4.52749 6.54487 4.56822 6.86739 4.41848 7.12065C4.0544 7.73622 3.7794 8.3988 3.60104 9.08995C3.52756 9.37458 3.27087 9.57339 2.97696 9.57339H2.02529C1.61936 9.57344 1.28906 9.9037 1.28906 10.3096V11.6904C1.28906 12.0963 1.61936 12.4266 2.02529 12.4266H2.97692C3.27087 12.4266 3.52752 12.6254 3.601 12.91C3.77936 13.6012 4.0544 14.2637 4.41843 14.8793C4.56818 15.1326 4.52745 15.4551 4.31939 15.6631L3.64525 16.3373C3.35384 16.6283 3.36145 17.095 3.645 17.3782L4.62146 18.3547C4.9045 18.6381 5.37131 18.6464 5.66238 18.3549L6.33673 17.6805C6.49004 17.5273 6.809 17.3972 7.12065 17.5815Z" fill="#A269F7"/>
<path d="M10.9985 15.7867C8.35907 15.7867 6.21179 13.6394 6.21179 11C6.21179 8.36058 8.35907 6.21326 10.9985 6.21326C13.638 6.21326 15.7852 8.36058 15.7852 11C15.7852 13.6394 13.638 15.7867 10.9985 15.7867ZM10.9985 7.50232C9.06986 7.50232 7.50085 9.07137 7.50085 11C7.50085 12.9286 9.0699 14.4976 10.9985 14.4976C12.9271 14.4976 14.4962 12.9286 14.4962 11C14.4962 9.07137 12.9272 7.50232 10.9985 7.50232Z" fill="#A269F7"/>
</g>
<defs>
<clipPath id="clip0">
<rect width="22" height="22" fill="white"/>
</clipPath>
</defs>
</svg>
