<svg width="22" height="20" viewBox="0 0 22 20" fill="none" xmlns="http://www.w3.org/2000/svg">
<path d="M20.7597 1.81869C20.5733 1.66328 20.3165 1.62284 20.0913 1.71332L3.20667 8.52841C3.0359 8.59745 2.95343 8.79189 3.02246 8.96266C3.0915 9.13343 3.28594 9.2159 3.45671 9.14687L19.5866 2.63851L11.5853 12.0753C11.4663 12.2158 11.4837 12.4262 11.6242 12.5452C11.7647 12.6643 11.975 12.6469 12.0941 12.5064L20.2163 2.92621L19.1308 8.37507L18.0373 15.6819C18.0223 15.7841 17.9607 15.8737 17.8706 15.9243C17.7842 15.9725 17.6801 15.9773 17.5895 15.9373L13.0432 14.1496L10.8615 13.2362C10.6917 13.165 10.4964 13.2448 10.4251 13.4145C10.4178 13.4374 10.4131 13.461 10.4111 13.4849H10.4031L9.31993 17.6675L7.76571 12.2384L15.867 6.2041C15.9705 6.13608 16.0278 6.0163 16.0157 5.893C16.0037 5.7697 15.9242 5.66328 15.8095 5.61663C15.6948 5.56998 15.5636 5.5908 15.4689 5.6707L7.32599 11.7332L1.4564 9.35721C1.28606 9.28966 1.09314 9.37221 1.02442 9.54208C0.955696 9.71196 1.03696 9.90542 1.20636 9.97532L7.10728 12.363L8.68085 17.8565C8.76278 18.1403 9.02293 18.3353 9.31829 18.3343H9.32595C9.48695 18.3314 9.64123 18.2693 9.75934 18.1599C9.77098 18.1529 9.78211 18.1451 9.79266 18.1366L13.0152 14.8414L17.3358 16.5547C17.6135 16.6727 17.9302 16.6549 18.193 16.5067C18.4637 16.3565 18.6494 16.0891 18.6954 15.7829L19.7859 8.48977L20.9861 2.46848C21.036 2.22672 20.9491 1.97707 20.7597 1.81869ZM10.2545 16.713L10.9582 14.0002L12.0604 14.463L12.3444 14.5756L10.2545 16.713Z" fill="white" stroke="white" stroke-width="0.2"/>
</svg>
