<svg width="22" height="22" viewBox="0 0 22 22" fill="none" xmlns="http://www.w3.org/2000/svg">
<path d="M5.33504 9.66345C5.15105 9.66345 5.00171 9.81279 5.00171 9.99678V11.9968C5.00171 12.1808 5.15105 12.3301 5.33504 12.3301C5.51902 12.3301 5.66836 12.1808 5.66836 11.9968V9.99678C5.6684 9.81279 5.51906 9.66345 5.33504 9.66345Z" fill="#A269F7" stroke="#A269F7" stroke-width="0.1"/>
<path d="M5.36943 1.08996L2.21768 2.351C1.33001 2.67968 1 3.12571 1 3.9967V18C1 18.871 1.33001 19.317 2.20936 19.6431L5.37576 20.9098C5.53244 20.9691 5.68975 20.9991 5.84378 20.9991C6.51379 20.9991 7.00013 20.4391 7.00013 19.6674V2.33003C7.00013 1.382 6.2441 0.760658 5.36943 1.08996ZM6.33344 19.6674C6.33344 20.0651 6.13675 20.3324 5.84378 20.3324C5.77077 20.3324 5.69209 20.3167 5.61709 20.2887L2.44937 19.021C1.82037 18.788 1.66669 18.5874 1.66669 18V3.9967C1.66669 3.40935 1.82037 3.20903 2.45737 2.97301L5.61076 1.71166C5.69209 1.68099 5.77041 1.66533 5.84342 1.66533C6.13644 1.66533 6.33344 1.93232 6.33344 2.33003V19.6674Z" fill="#A269F7" stroke="#A269F7" stroke-width="0.1"/>
<path d="M7.95686 2.99665H12.6653C13.2166 2.99665 13.6653 3.44533 13.6653 3.99667V8.99678C13.6653 9.18077 13.8143 9.33011 13.9986 9.33011C14.183 9.33011 14.332 9.18077 14.332 8.99678V3.99667C14.332 3.07767 13.5843 2.32996 12.6652 2.32996H7.95686C7.77287 2.32996 7.62354 2.4793 7.62354 2.66328C7.62354 2.84727 7.77287 2.99665 7.95686 2.99665Z" fill="#A269F7" stroke="#A269F7" stroke-width="0.1"/>
<path d="M13.9995 12.6636C13.8151 12.6636 13.6661 12.8129 13.6661 12.9969V17.997C13.6661 18.5483 13.2175 18.997 12.6661 18.997H7.99934C7.81535 18.997 7.66602 19.1464 7.66602 19.3304C7.66602 19.5143 7.81535 19.6637 7.99934 19.6637H12.6661C13.5851 19.6637 14.3328 18.916 14.3328 17.997V12.9969C14.3328 12.8129 14.1838 12.6636 13.9995 12.6636Z" fill="#A269F7" stroke="#A269F7" stroke-width="0.1"/>
<path d="M20.9745 10.8695C20.9575 10.8285 20.9332 10.7919 20.9022 10.7608L17.5691 7.42745C17.4387 7.29713 17.2281 7.29713 17.0977 7.42745C16.9674 7.5578 16.9674 7.76847 17.0977 7.89879L19.8621 10.6635H8.66658C8.48259 10.6635 8.33325 10.8128 8.33325 10.9968C8.33325 11.1808 8.48259 11.3301 8.66658 11.3301H19.8622L17.0977 14.0946C16.9674 14.2249 16.9674 14.4356 17.0977 14.5659C17.1627 14.6309 17.2481 14.6636 17.3334 14.6636C17.4188 14.6636 17.5041 14.6309 17.5691 14.5659L20.9022 11.2328C20.9332 11.2018 20.9575 11.1652 20.9745 11.1242C21.0082 11.0429 21.0082 10.9509 20.9745 10.8695Z" fill="#A269F7" stroke="#A269F7" stroke-width="0.1"/>
</svg>
