<svg width="22" height="22" viewBox="0 0 22 22" fill="none" xmlns="http://www.w3.org/2000/svg">
<path d="M11 1C5.48577 1 1 5.48577 1 11C1 16.5142 5.48577 21 11 21C16.5142 21 21 16.5142 21 11C21 5.48577 16.5142 1 11 1ZM11 20.2308C5.91038 20.2308 1.76923 16.0896 1.76923 11C1.76923 5.91038 5.91038 1.76923 11 1.76923C16.0896 1.76923 20.2308 5.91038 20.2308 11C20.2308 16.0896 16.0896 20.2308 11 20.2308Z" fill="#A269F7" stroke="#A269F7" stroke-width="0.1"/>
<path d="M10.9996 15.2307C10.7869 15.2307 10.615 15.4026 10.615 15.6153V16.3846C10.615 16.5973 10.7869 16.7692 10.9996 16.7692C11.2123 16.7692 11.3842 16.5973 11.3842 16.3846V15.6153C11.3842 15.4026 11.2123 15.2307 10.9996 15.2307Z" fill="#A269F7" stroke="#A269F7" stroke-width="0.1"/>
<path d="M11.043 4.46193C11.0284 4.46193 11.0138 4.46155 10.9988 4.46155C10.1849 4.46155 9.41953 4.77501 8.83915 5.3477C8.24838 5.93039 7.92261 6.70847 7.92261 7.53847C7.92261 7.75116 8.09453 7.92309 8.30722 7.92309C8.51992 7.92309 8.69184 7.75116 8.69184 7.53847C8.69184 6.91616 8.93607 6.33232 9.37915 5.89539C9.82261 5.45809 10.413 5.21655 11.0326 5.23116C12.2484 5.24809 13.2899 6.28962 13.3068 7.50539C13.318 8.30693 12.9226 9.04462 12.2488 9.47924C11.2257 10.1392 10.6149 11.3054 10.6149 12.5992V13.6923C10.6149 13.905 10.7868 14.0769 10.9995 14.0769C11.2122 14.0769 11.3841 13.905 11.3841 13.6923V12.5992C11.3841 11.5831 11.8749 10.6358 12.6657 10.1254C13.5638 9.54616 14.0911 8.5627 14.0761 7.49462C14.053 5.84578 12.6922 4.48501 11.043 4.46193Z" fill="#A269F7" stroke="#A269F7" stroke-width="0.1"/>
</svg>
