<svg width="20" height="20" viewBox="0 0 20 20" fill="none" xmlns="http://www.w3.org/2000/svg">
<g clip-path="url(#clip0)">
<path d="M19.8025 0.05134C19.6807 -0.0181913 19.5308 -0.0170194 19.4101 0.0543868L12.2517 4.28735C12.066 4.39716 12.0045 4.63669 12.1143 4.82239C12.2241 5.00806 12.4636 5.06958 12.6494 4.95982L17.7854 1.92275L8.21872 11.849L3.46059 10.3933L9.67017 6.72146C9.85587 6.61161 9.9174 6.37208 9.80759 6.18638C9.69783 6.00071 9.45826 5.93911 9.27255 6.04896L2.3007 10.1716C2.1675 10.2504 2.09332 10.4003 2.11164 10.554C2.12996 10.7077 2.23727 10.8361 2.38524 10.8814L8.06763 12.6198L10.5745 17.1828C10.5772 17.1875 10.5799 17.1915 10.5826 17.1951C10.6245 17.2649 10.6872 17.3218 10.7654 17.3547C10.8143 17.3753 10.8658 17.3854 10.9169 17.3854C11.017 17.3854 11.1155 17.3468 11.1899 17.2741L14.0725 14.4569L19.4946 16.1157C19.5321 16.1272 19.5706 16.1328 19.6089 16.1328C19.6916 16.1328 19.7732 16.1066 19.8412 16.0562C19.9408 15.9825 19.9996 15.866 19.9996 15.7422V0.390637C19.9996 0.250363 19.9243 0.120832 19.8025 0.05134ZM10.5958 12.8606C10.5506 12.9259 10.5263 13.0035 10.5263 13.083V15.4725L8.8145 12.3567L16.3896 4.49689L10.5958 12.8606ZM11.3076 16.0668V13.611L13.2213 14.1965L11.3076 16.0668ZM19.2183 15.2142L11.5426 12.8659L19.2183 1.78532V15.2142Z" fill="#A269F7"/>
<path d="M6.42206 13.5772C6.26949 13.4246 6.02222 13.4246 5.8696 13.5772L2.22305 17.2237C2.07051 17.3763 2.07051 17.6236 2.22305 17.7762C2.29937 17.8525 2.39934 17.8906 2.4993 17.8906C2.59926 17.8906 2.69922 17.8525 2.77551 17.7762L6.42206 14.1296C6.5746 13.9771 6.5746 13.7298 6.42206 13.5772Z" fill="#A269F7"/>
<path d="M1.56551 18.4347C1.41293 18.2822 1.16566 18.2822 1.01309 18.4347L0.114648 19.3331C-0.0378906 19.4857 -0.0378906 19.733 0.114648 19.8856C0.190938 19.9619 0.290898 20 0.390859 20C0.49082 20 0.590781 19.9618 0.66707 19.8856L1.56551 18.9871C1.71805 18.8346 1.71805 18.5872 1.56551 18.4347Z" fill="#A269F7"/>
<path d="M5.57301 19.3101C5.50039 19.2375 5.39961 19.1957 5.29688 19.1957C5.19371 19.1957 5.09336 19.2375 5.0207 19.3101C4.94805 19.3828 4.90625 19.4832 4.90625 19.5863C4.90625 19.689 4.94801 19.7898 5.0207 19.8625C5.09336 19.9351 5.19414 19.9769 5.29688 19.9769C5.39961 19.9769 5.50039 19.9351 5.57301 19.8625C5.64566 19.7898 5.6875 19.689 5.6875 19.5863C5.6875 19.4832 5.6457 19.3828 5.57301 19.3101Z" fill="#A269F7"/>
<path d="M8.47771 16.4037C8.32524 16.2512 8.07798 16.2512 7.92528 16.4037L5.9938 18.3352C5.84126 18.4877 5.84126 18.735 5.9938 18.8876C6.07009 18.9639 6.17005 19.002 6.27001 19.002C6.36997 19.002 6.46993 18.9638 6.54622 18.8876L8.47771 16.9561C8.63024 16.8036 8.63024 16.5563 8.47771 16.4037Z" fill="#A269F7"/>
<path d="M15.1433 16.2555C14.9907 16.103 14.7435 16.103 14.5909 16.2555L12.6542 18.1922C12.5017 18.3447 12.5017 18.5921 12.6542 18.7447C12.7305 18.8209 12.8304 18.8591 12.9304 18.8591C13.0304 18.8591 13.1303 18.8209 13.2066 18.7447L15.1433 16.8079C15.2959 16.6554 15.2959 16.4081 15.1433 16.2555Z" fill="#A269F7"/>
<path d="M11.073 5.32466C11.0004 5.252 10.8996 5.21021 10.7969 5.21021C10.6941 5.21021 10.5934 5.252 10.5207 5.32466C10.4481 5.39731 10.4062 5.4981 10.4062 5.60122C10.4062 5.70395 10.448 5.80435 10.5207 5.877C10.5934 5.95005 10.6941 5.99145 10.7969 5.99145C10.8996 5.99145 11.0004 5.95005 11.073 5.877C11.1457 5.80435 11.1875 5.70395 11.1875 5.60122C11.1875 5.4981 11.1457 5.39731 11.073 5.32466Z" fill="#A269F7"/>
</g>
<defs>
<clipPath id="clip0">
<rect width="20" height="20" fill="white"/>
</clipPath>
</defs>
</svg>
