<svg width="20" height="20" viewBox="0 0 20 20" fill="none" xmlns="http://www.w3.org/2000/svg">
<path d="M17.5 13.737C17.2843 13.737 17.1094 13.9119 17.1094 14.1276V18.9658L10.1803 15.3603C10.0673 15.3015 9.93277 15.3015 9.81969 15.3603L2.89062 18.9658V7.67578C2.89062 7.46004 2.7157 7.28516 2.5 7.28516C2.2843 7.28516 2.10938 7.46004 2.10938 7.67578V19.6093C2.10938 19.7459 2.18063 19.8724 2.2973 19.9433C2.4141 20.0141 2.5593 20.0188 2.68031 19.9559L10 16.1472L17.3197 19.9559C17.3763 19.9853 17.4382 20 17.5 20C17.5704 20 17.6405 19.981 17.7027 19.9433C17.8194 19.8724 17.8906 19.7459 17.8906 19.6093V14.1276C17.8906 13.9119 17.7157 13.737 17.5 13.737Z" fill="white"/>
<path d="M17.5 0H2.5C2.2843 0 2.10938 0.174883 2.10938 0.390625V4.53125C2.10938 4.74699 2.2843 4.92188 2.5 4.92188C2.7157 4.92188 2.89062 4.74699 2.89062 4.53125V0.78125H17.1094V11.1849C17.1094 11.4006 17.2843 11.5755 17.5 11.5755C17.7157 11.5755 17.8906 11.4006 17.8906 11.1849V0.390625C17.8906 0.174883 17.7157 0 17.5 0Z" fill="white"/>
<path d="M15.0093 6.88563C14.9633 6.74423 14.8411 6.64118 14.6939 6.61985L11.6941 6.18478L10.3518 3.46692C10.286 3.33364 10.1503 3.24927 10.0016 3.24927C10.0016 3.24927 10.0015 3.24927 10.0015 3.24927C9.85277 3.24931 9.71703 3.33376 9.65125 3.46712L8.31047 6.18567L5.31093 6.62235C5.16382 6.64376 5.0416 6.74685 4.99566 6.88829C4.94976 7.0297 4.98808 7.18493 5.09461 7.28868L7.26578 9.40392L6.75414 12.3916C6.72902 12.5382 6.78929 12.6863 6.90961 12.7736C6.97765 12.823 7.05824 12.8482 7.13918 12.8482C7.2014 12.8482 7.26386 12.8333 7.32105 12.8033L10.0037 11.392L12.687 12.8019C12.8187 12.8711 12.9781 12.8595 13.0984 12.772C13.2187 12.6846 13.2789 12.5365 13.2537 12.39L12.7405 9.40251L14.9106 7.2861C15.017 7.18228 15.0553 7.02704 15.0093 6.88563ZM12.048 8.98653C11.956 9.07634 11.914 9.20564 11.9358 9.33235L12.3498 11.7421L10.1853 10.6049C10.0715 10.545 9.93554 10.5451 9.82168 10.6049L7.65777 11.7433L8.07047 9.33333C8.09218 9.20657 8.05011 9.07731 7.95804 8.98759L6.20668 7.28138L8.62629 6.92919C8.75351 6.91067 8.86347 6.83075 8.92035 6.71544L10.0019 4.52255L11.0846 6.71485C11.1415 6.83009 11.2515 6.90997 11.3787 6.92845L13.7985 7.27939L12.048 8.98653Z" fill="white"/>
<path d="M2.77613 5.84331C2.70352 5.77065 2.60273 5.72925 2.5 5.72925C2.39727 5.72925 2.29648 5.77065 2.22383 5.84331C2.15113 5.91636 2.10938 6.01675 2.10938 6.11987C2.10938 6.22261 2.15117 6.32339 2.22383 6.39605C2.29648 6.4687 2.39727 6.5105 2.5 6.5105C2.60273 6.5105 2.70352 6.4687 2.77613 6.39605C2.84883 6.323 2.89062 6.22261 2.89062 6.11987C2.89062 6.01714 2.84879 5.91636 2.77613 5.84331Z" fill="white"/>
<path d="M17.7761 12.341C17.7035 12.2684 17.6027 12.2266 17.5 12.2266C17.3973 12.2266 17.2965 12.2684 17.2238 12.341C17.1511 12.4137 17.1094 12.5145 17.1094 12.6172C17.1094 12.7199 17.1512 12.8207 17.2238 12.8934C17.2965 12.966 17.3973 13.0078 17.5 13.0078C17.6027 13.0078 17.7035 12.966 17.7761 12.8934C17.8488 12.8207 17.8906 12.7199 17.8906 12.6172C17.8906 12.5145 17.8488 12.4137 17.7761 12.341Z" fill="white"/>
</svg>
