<svg width="20" height="20" viewBox="0 0 20 20" fill="none" xmlns="http://www.w3.org/2000/svg">
<g clip-path="url(#clip0)">
<path d="M16.1714 5.81055C16.3871 5.81055 16.562 5.63566 16.562 5.41992V1.17188C16.562 0.525703 16.0363 0 15.3901 0H1.17139C0.525215 0 -0.000488281 0.525703 -0.000488281 1.17188V18.8281C-0.000488281 19.4743 0.525215 20 1.17139 20H15.3901C16.0363 20 16.562 19.4743 16.562 18.8281V15.9503C16.562 15.7346 16.3871 15.5597 16.1714 15.5597C15.9557 15.5597 15.7808 15.7346 15.7808 15.9503V18.8281C15.7808 19.0435 15.6055 19.2188 15.3901 19.2188H1.17139C0.955996 19.2188 0.780762 19.0435 0.780762 18.8281V1.17188C0.780762 0.956484 0.955996 0.78125 1.17139 0.78125H15.3901C15.6055 0.78125 15.7808 0.956484 15.7808 1.17188V5.41992C15.7808 5.63566 15.9557 5.81055 16.1714 5.81055Z" fill="#A269F7"/>
<path d="M8.28075 2.10938C6.29916 2.10938 4.68701 3.72152 4.68701 5.70312C4.68701 6.73113 5.121 7.65957 5.81521 8.3152C5.82822 8.3291 5.84205 8.34227 5.85717 8.35426C6.49666 8.93937 7.34771 9.29684 8.28072 9.29684C9.21372 9.29684 10.0648 8.93934 10.7043 8.35426C10.7194 8.34227 10.7332 8.32906 10.7462 8.3152C11.4405 7.65957 11.8745 6.73113 11.8745 5.70312C11.8745 3.72152 10.2624 2.10938 8.28075 2.10938ZM8.28075 8.51562C7.6429 8.51562 7.05423 8.30188 6.58189 7.94266C6.92521 7.33387 7.56587 6.95312 8.28075 6.95312C8.99564 6.95312 9.6363 7.33387 9.97962 7.94266C9.50724 8.30188 8.9186 8.51562 8.28075 8.51562ZM7.65576 5.54688V5.29297C7.65576 4.94836 7.93615 4.66797 8.28075 4.66797C8.62536 4.66797 8.90575 4.94836 8.90575 5.29297V5.54688C8.90575 5.89148 8.62536 6.17188 8.28075 6.17188C7.93615 6.17188 7.65576 5.89148 7.65576 5.54688ZM10.544 7.37043C10.2559 6.94316 9.85669 6.61086 9.39313 6.4057C9.57712 6.16793 9.687 5.87008 9.687 5.54688V5.29297C9.687 4.51754 9.05618 3.88672 8.28075 3.88672C7.50533 3.88672 6.87451 4.51754 6.87451 5.29297V5.54688C6.87451 5.87008 6.98439 6.16793 7.16837 6.4057C6.70482 6.61086 6.30556 6.94316 6.01748 7.37043C5.6726 6.90352 5.46826 6.32684 5.46826 5.70312C5.46826 4.1523 6.72994 2.89062 8.28075 2.89062C9.83157 2.89062 11.0932 4.1523 11.0932 5.70312C11.0932 6.32684 10.8889 6.90352 10.544 7.37043Z" fill="#A269F7"/>
<path d="M10.3901 17.1094H8.28076C8.06506 17.1094 7.89014 17.2843 7.89014 17.5C7.89014 17.7157 8.06506 17.8906 8.28076 17.8906H10.3901C10.6058 17.8906 10.7807 17.7157 10.7807 17.5C10.7807 17.2843 10.6058 17.1094 10.3901 17.1094Z" fill="#A269F7"/>
<path d="M10.3901 14.9219H4.84326C4.62756 14.9219 4.45264 15.0968 4.45264 15.3125C4.45264 15.5282 4.62756 15.7031 4.84326 15.7031H10.3901C10.6058 15.7031 10.7807 15.5282 10.7807 15.3125C10.7807 15.0968 10.6058 14.9219 10.3901 14.9219Z" fill="#A269F7"/>
<path d="M10.3901 12.7344H4.84326C4.62756 12.7344 4.45264 12.9093 4.45264 13.125C4.45264 13.3407 4.62756 13.5156 4.84326 13.5156H10.3901C10.6058 13.5156 10.7807 13.3407 10.7807 13.125C10.7807 12.9093 10.6058 12.7344 10.3901 12.7344Z" fill="#A269F7"/>
<path d="M3.4523 10.6613C3.37969 10.5887 3.27891 10.5469 3.17578 10.5469C3.07301 10.5469 2.97223 10.5887 2.89961 10.6613C2.82695 10.734 2.78516 10.8348 2.78516 10.9375C2.78516 11.0402 2.82691 11.141 2.89961 11.2137C2.97266 11.2863 3.07301 11.3281 3.17578 11.3281C3.27891 11.3281 3.3793 11.2863 3.4523 11.2137C3.52496 11.141 3.5668 11.0402 3.5668 10.9375C3.5668 10.8348 3.525 10.734 3.4523 10.6613Z" fill="#A269F7"/>
<path d="M3.4523 12.8488C3.3793 12.7762 3.27891 12.7344 3.17578 12.7344C3.07301 12.7344 2.97266 12.7762 2.89961 12.8488C2.82695 12.9215 2.78516 13.0223 2.78516 13.125C2.78516 13.2277 2.82691 13.3285 2.89961 13.4012C2.97266 13.4738 3.07301 13.5156 3.17578 13.5156C3.27891 13.5156 3.3793 13.4738 3.4523 13.4012C3.52496 13.3285 3.5668 13.2277 3.5668 13.125C3.5668 13.0223 3.525 12.9215 3.4523 12.8488Z" fill="#A269F7"/>
<path d="M3.4523 15.0363C3.3793 14.9637 3.27891 14.9219 3.17578 14.9219C3.07301 14.9219 2.97266 14.9637 2.89961 15.0363C2.82695 15.109 2.78516 15.2098 2.78516 15.3125C2.78516 15.4152 2.82691 15.516 2.89961 15.5887C2.97223 15.6613 3.07301 15.7031 3.17578 15.7031C3.27891 15.7031 3.37969 15.6613 3.4523 15.5887C3.52496 15.516 3.5668 15.4152 3.5668 15.3125C3.5668 15.2098 3.525 15.109 3.4523 15.0363Z" fill="#A269F7"/>
<path d="M10.3901 10.5469H4.84326C4.62756 10.5469 4.45264 10.7218 4.45264 10.9375C4.45264 11.1532 4.62756 11.3281 4.84326 11.3281H10.3901C10.6058 11.3281 10.7807 11.1532 10.7807 10.9375C10.7807 10.7218 10.6058 10.5469 10.3901 10.5469Z" fill="#A269F7"/>
<path d="M19.1802 5.09062C18.8007 4.87152 18.3586 4.81331 17.9352 4.92671C17.5119 5.04015 17.1581 5.31163 16.9391 5.69112L12.0233 14.2053C11.9964 14.252 11.9794 14.3037 11.9734 14.3573L11.6274 17.4567C11.6102 17.6109 11.6859 17.7607 11.8203 17.8383C11.881 17.8733 11.9484 17.8906 12.0156 17.8906C12.0973 17.8906 12.1787 17.8651 12.2473 17.8145L14.7584 15.9652C14.8017 15.9332 14.8381 15.8926 14.865 15.846L19.7807 7.33179C20.233 6.54835 19.9636 5.54296 19.1802 5.09062ZM12.5029 16.656L12.6836 15.0376L13.8141 15.6903L12.5029 16.656ZM14.3837 15.117L12.8953 14.2576L16.84 7.42522L18.3285 8.2846L14.3837 15.117ZM19.1041 6.94112L18.7191 7.60804L17.2306 6.74866L17.6156 6.08175C17.7304 5.88296 17.9157 5.74077 18.1374 5.68136C18.3592 5.62191 18.5908 5.65245 18.7895 5.76722C18.9883 5.88198 19.1305 6.0673 19.1899 6.28901C19.2493 6.51073 19.2189 6.74233 19.1041 6.94112Z" fill="#A269F7"/>
</g>
<defs>
<clipPath id="clip0">
<rect width="20" height="20" fill="white"/>
</clipPath>
</defs>
</svg>
