<svg width="20" height="20" viewBox="0 0 20 20" fill="none" xmlns="http://www.w3.org/2000/svg">
<path d="M10.0266 9.78131C12.2503 9.78131 14.0531 7.59171 14.0531 4.89069C14.0531 2.1896 13.4612 0 10.0266 0C6.592 0 6 2.1896 6 4.89069C6 7.59171 7.80281 9.78131 10.0266 9.78131Z" fill="#A269F7"/>
<path d="M2.39533 17.2488C2.39464 17.084 2.39395 17.2024 2.39533 17.2488V17.2488Z" fill="#A269F7"/>
<path d="M17.6055 17.3774C17.6076 17.3323 17.6062 17.0646 17.6055 17.3774V17.3774Z" fill="#A269F7"/>
<path d="M17.5967 17.0513C17.5221 12.346 16.9076 11.0052 12.2051 10.1566C12.2051 10.1566 11.5432 11 10.0003 11C8.45748 11 7.79543 10.1566 7.79543 10.1566C3.14428 10.996 2.4924 12.3168 2.40668 16.8984C2.39966 17.2725 2.3964 17.2922 2.39514 17.2487C2.39543 17.3301 2.39577 17.4806 2.39577 17.7431C2.39577 17.7431 3.51531 20 10.0003 20C16.4853 20 17.6049 17.7431 17.6049 17.7431C17.6049 17.5745 17.605 17.4572 17.6052 17.3774C17.6039 17.4043 17.6014 17.3522 17.5967 17.0513Z" fill="#A269F7"/>
</svg>
