<svg width="26" height="31" viewBox="0 0 26 31" fill="none" xmlns="http://www.w3.org/2000/svg">
<path d="M25.374 24.1853L25.2745 24.3066C21.9997 28.3003 17.6376 30.5007 12.9942 30.5007C8.35018 30.5007 3.98875 28.301 0.713221 24.3066L0.614441 24.1853L0.637764 24.0298C1.27023 19.8367 3.42557 16.4684 6.70658 14.5434L6.93981 14.4068L7.12571 14.6048C8.67533 16.2572 10.7593 17.1664 12.9935 17.1664C15.2278 17.1664 17.3118 16.2565 18.8614 14.6048L19.0473 14.4068L19.2805 14.5434C22.5615 16.4684 24.7169 19.8367 25.35 24.0298L25.374 24.1853ZM12.9942 15.4826C17.0579 15.4826 20.3643 12.122 20.3643 7.99163C20.3643 3.8613 17.0579 0.5 12.9942 0.5C8.93051 0.5 5.62411 3.8613 5.62411 7.99094C5.62411 12.1206 8.93051 15.4826 12.9942 15.4826Z" fill="#A269F7"/>
</svg>
