<svg width="14" height="16" viewBox="0 0 14 16" fill="none" xmlns="http://www.w3.org/2000/svg">
<path d="M7.00008 7.82505C8.77901 7.82505 10.2213 6.07337 10.2213 3.91255C10.2213 1.75168 9.74774 0 7.00008 0C4.25241 0 3.77881 1.75168 3.77881 3.91255C3.77881 6.07337 5.22105 7.82505 7.00008 7.82505Z" fill="black"/>
<path d="M0.915674 13.799C0.915124 13.6672 0.914574 13.7619 0.915674 13.799V13.799Z" fill="black"/>
<path d="M13.084 13.9019C13.0857 13.8658 13.0846 13.6517 13.084 13.9019V13.9019Z" fill="black"/>
<path d="M13.0768 13.641C13.0171 9.87682 12.5255 8.80422 8.76353 8.12527C8.76353 8.12527 8.23397 8.80006 6.99969 8.80006C5.7654 8.80006 5.23575 8.12527 5.23575 8.12527C1.51484 8.79682 0.993333 9.85351 0.924762 13.5187C0.919139 13.818 0.916533 13.8338 0.915527 13.799C0.915756 13.8641 0.91603 13.9845 0.91603 14.1945C0.91603 14.1945 1.81166 16 6.99969 16C12.1876 16 13.0833 14.1945 13.0833 14.1945C13.0833 14.0596 13.0834 13.9658 13.0836 13.902C13.0826 13.9235 13.0806 13.8818 13.0768 13.641Z" fill="black"/>
</svg>
