<svg width="24" height="24" viewBox="0 0 24 24" fill="none" xmlns="http://www.w3.org/2000/svg">
<path fill-rule="evenodd" clip-rule="evenodd" d="M12.0786 0.560009C18.4409 0.560009 23.5986 5.71769 23.5986 12.08C23.5986 18.4423 18.4409 23.6 12.0786 23.6C5.71627 23.6 0.558594 18.4423 0.558594 12.08C0.558594 5.71769 5.71627 0.560009 12.0786 0.560009Z" fill="#A269F7"/>
<path fill-rule="evenodd" clip-rule="evenodd" d="M15.1486 10.62C15.0925 10.1648 14.9526 9.80737 14.7042 9.49078C14.3815 9.08313 13.9692 8.83902 13.3588 8.69421C12.961 8.59769 12.8003 8.60877 12.6564 8.74019C12.5224 8.86332 12.4963 9.11016 12.5987 9.27C12.6707 9.38602 12.7538 9.42758 12.9849 9.47294C13.2926 9.52956 13.5053 9.60304 13.6987 9.71365C14.1093 9.95074 14.3005 10.3218 14.321 10.9224C14.3306 11.2044 14.355 11.2911 14.4535 11.3912C14.636 11.574 14.9609 11.5384 15.0988 11.3196C15.1493 11.2372 15.157 11.2013 15.1624 11.0098C15.1659 10.8912 15.1608 10.7147 15.1486 10.62Z" fill="white"/>
<path fill-rule="evenodd" clip-rule="evenodd" d="M16.7573 11.1333C16.6762 9.73869 16.1307 8.61669 15.1545 7.82727C14.6045 7.3837 13.9396 7.07868 13.2109 6.93035C12.9439 6.8773 12.4524 6.8343 12.3681 6.85889C12.2885 6.88167 12.176 6.96783 12.1258 7.04574C12.0728 7.13023 12.0608 7.31887 12.106 7.42799C12.1791 7.6104 12.315 7.67485 12.6955 7.70814C13.2821 7.75946 13.8871 7.96555 14.3443 8.27066C14.8662 8.61805 15.2811 9.0932 15.5495 9.65155C15.7814 10.1313 15.924 10.8226 15.9201 11.4417C15.9187 11.6656 15.9533 11.7921 16.0434 11.8845C16.1793 12.0267 16.3774 12.0578 16.5523 11.9634C16.7461 11.8614 16.7914 11.6826 16.7573 11.1333Z" fill="white"/>
<path fill-rule="evenodd" clip-rule="evenodd" d="M18.5406 16.5038C18.5133 16.4241 18.4496 16.3012 18.4041 16.2306C18.1177 15.798 16.5785 14.5934 15.81 14.1994C15.3712 13.974 15.046 13.8989 14.805 13.9695C14.5458 14.0424 14.4094 14.163 13.9751 14.7027C13.8001 14.919 13.6205 15.1217 13.5727 15.1535C13.4545 15.2355 13.2226 15.3016 13.0589 15.3016C12.6792 15.2993 11.9903 15.0533 11.4605 14.73C11.049 14.4796 10.5216 14.031 10.1168 13.5869C9.63937 13.0655 9.31428 12.6055 9.05733 12.0864C8.72541 11.4192 8.64128 11.0116 8.77995 10.7133C8.81406 10.6381 8.85954 10.5585 8.87998 10.5334C8.90046 10.5106 9.11419 10.3353 9.35062 10.144C9.81446 9.77515 9.88948 9.6909 9.97587 9.43814C10.085 9.11706 10.0555 8.78917 9.88721 8.45901C9.7576 8.20852 9.41884 7.66203 9.1733 7.3091C8.84817 6.8446 8.03876 5.8518 7.87731 5.71741C7.5863 5.48062 7.21346 5.43961 6.8019 5.59904C6.36768 5.76754 5.5537 6.42333 5.20583 6.88102C4.89207 7.29544 4.77161 7.58916 4.7534 7.97627C4.7375 8.29504 4.76477 8.42711 4.93302 8.83472C6.24944 12.0317 8.21381 14.5843 10.9126 16.6109C12.3222 17.6697 13.7842 18.4758 15.3007 19.0268C16.1851 19.3479 16.5693 19.3638 17.0218 19.0997C17.2128 18.9858 17.6857 18.5008 17.9494 18.1479C18.3859 17.5604 18.5474 17.2894 18.5928 17.0731C18.6247 16.9251 18.5997 16.6678 18.5406 16.5038Z" fill="white"/>
<path fill-rule="evenodd" clip-rule="evenodd" d="M18.3928 11.4535C18.3637 10.6647 18.2309 10.0176 17.954 9.2962C17.6805 8.58658 17.4038 8.12352 16.8812 7.4972C16.3871 6.90996 16.0033 6.57466 15.3947 6.20142C14.5455 5.68139 13.5121 5.33726 12.3539 5.19253C11.959 5.14194 11.8696 5.14556 11.7484 5.22641C11.5136 5.37957 11.5168 5.76159 11.7523 5.91245C11.8303 5.96044 11.8995 5.97793 12.2154 6.01928C12.7004 6.08457 13.0122 6.14611 13.3823 6.24707C14.8333 6.64373 15.9492 7.45452 16.6952 8.6581C17.3195 9.66129 17.5786 10.6646 17.5418 11.9459C17.529 12.3791 17.5383 12.4553 17.6046 12.5594C17.7314 12.7534 18.0658 12.7918 18.2373 12.6308C18.3441 12.5327 18.3642 12.459 18.3852 12.0883C18.3953 11.8949 18.3975 11.6094 18.3928 11.4535Z" fill="white"/>
</svg>
